<?xml version="1.0" encoding="UTF-8" standalone="no"?>
<svg
   xmlns:dc="http://purl.org/dc/elements/1.1/"
   xmlns:cc="http://creativecommons.org/ns#"
   xmlns:rdf="http://www.w3.org/1999/02/22-rdf-syntax-ns#"
   xmlns:svg="http://www.w3.org/2000/svg"
   xmlns="http://www.w3.org/2000/svg"
   version="1.1"
   id="svg5317"
   viewBox="0 0 384.05016 223.56102"
   height="63.093887mm"
   width="108.38749mm">
  <defs
     id="defs5319" />
  <metadata
     id="metadata5322">
    <rdf:RDF>
      <cc:Work
         rdf:about="">
        <dc:format>image/svg+xml</dc:format>
        <dc:type
           rdf:resource="http://purl.org/dc/dcmitype/StillImage" />
        <dc:title></dc:title>
      </cc:Work>
    </rdf:RDF>
  </metadata>
  <g
     transform="translate(-184.0699,-348.22583)"
     id="layer1">
    <path
       id="path5883"
       d="m 302.8456,350.20381 c 4.49039,2.22271 7.87934,6.68128 8.87949,11.68199 1.41706,7.08533 -0.0524,8.91597 -36.72914,45.75618 -19.18175,19.26726 -34.8759,35.35476 -34.8759,35.75 0,0.39525 70.80422,0.71864 157.34272,0.71864 l 157.34271,0 4.35455,2.30274 c 4.75603,2.51505 8.96002,8.94173 8.96002,13.69726 0,4.75553 -4.20399,11.18221 -8.96002,13.69726 l -4.35455,2.30274 -157.34271,0 c -86.5385,0 -157.34272,0.32339 -157.34272,0.71864 0,0.39524 15.70707,16.48274 34.90461,35.75 29.72899,29.83695 35.0905,35.66155 36.15829,39.28136 3.37517,11.44192 -7.84703,22.67203 -19.3129,19.32651 -3.68202,-1.07434 -11.02148,-8.01155 -54.91822,-51.90829 -43.89674,-43.89674 -50.83395,-51.2362 -51.90829,-54.91822 -2.65121,-9.08632 -3.76904,-7.71354 50.916,-62.52846 32.79065,-32.86854 51.04165,-50.4482 53.72623,-51.75 5.17093,-2.50747 7.89935,-2.48225 13.15983,0.12165 z"
       style="fill:#FFF" />
  </g>
</svg>
