<?xml version="1.0" encoding="UTF-8" standalone="no"?>
<!-- Created with Inkscape (http://www.inkscape.org/) -->

<svg
   xmlns:dc="http://purl.org/dc/elements/1.1/"
   xmlns:cc="http://creativecommons.org/ns#"
   xmlns:rdf="http://www.w3.org/1999/02/22-rdf-syntax-ns#"
   xmlns:svg="http://www.w3.org/2000/svg"
   xmlns="http://www.w3.org/2000/svg"
   xmlns:sodipodi="http://sodipodi.sourceforge.net/DTD/sodipodi-0.dtd"
   xmlns:inkscape="http://www.inkscape.org/namespaces/inkscape"
   width="115.18387mm"
   height="44.64967mm"
   viewBox="0 0 408.13182 158.20749"
   id="svg2"
   version="1.1"
   inkscape:version="0.91 r13725"
   sodipodi:docname="contact.svg">
  <defs
     id="defs4" />
  <sodipodi:namedview
     id="base"
     pagecolor="#ffffff"
     bordercolor="#666666"
     borderopacity="1.0"
     inkscape:pageopacity="0.0"
     inkscape:pageshadow="2"
     inkscape:zoom="1.4"
     inkscape:cx="245.63608"
     inkscape:cy="47.029085"
     inkscape:document-units="px"
     inkscape:current-layer="layer1"
     showgrid="false"
     fit-margin-top="0"
     fit-margin-left="0"
     fit-margin-right="0"
     fit-margin-bottom="0"
     inkscape:window-width="1280"
     inkscape:window-height="751"
     inkscape:window-x="0"
     inkscape:window-y="1"
     inkscape:window-maximized="1" />
  <metadata
     id="metadata7">
    <rdf:RDF>
      <cc:Work
         rdf:about="">
        <dc:format>image/svg+xml</dc:format>
        <dc:type
           rdf:resource="http://purl.org/dc/dcmitype/StillImage" />
        <dc:title />
      </cc:Work>
    </rdf:RDF>
  </metadata>
  <g
     inkscape:label="Layer 1"
     inkscape:groupmode="layer"
     id="layer1"
     transform="translate(-186.37744,-374.45472)">
    <g
       style="font-style:normal;font-variant:normal;font-weight:normal;font-stretch:normal;font-size:20px;line-height:125%;font-family:FontAwesome;-inkscape-font-specification:'FontAwesome, Normal';text-align:start;letter-spacing:0px;word-spacing:0px;writing-mode:lr-tb;text-anchor:start;fill:#1a1a1a;fill-opacity:1;stroke:none;stroke-width:1px;stroke-linecap:butt;stroke-linejoin:miter;stroke-opacity:1"
       id="text6658">
      <path
         d="m 206.32744,459.89597 -0.9,5.1 c -1.6875,0.825 -3.45,1.1625 -5.175,1.1625 -5.9625,0 -10.2,-4.5 -10.2,-12.6 0,-8.025 4.5,-12.6 10.4625,-12.6 1.5,0 3,0.3375 4.5375,1.1625 l 0.9,5.0625 2.0625,0 -0.15,-5.8875 c -2.6625,-1.575 -5.325,-2.025 -7.7625,-2.025 -7.9125,0 -13.725,6 -13.725,14.2875 0,8.4 5.55,14.2875 13.725,14.2875 2.8875,0 5.5875,-0.5625 8.1375,-2.025 l 0.1125,-5.925 -2.025,0 z"
         style="font-style:normal;font-variant:normal;font-weight:normal;font-stretch:normal;font-size:37.5px;font-family:'Noto Serif CJK JP';-inkscape-font-specification:'Noto Serif CJK JP';fill:#1a1a1a;fill-opacity:1"
         id="path7311" />
      <path
         d="m 221.30693,467.77097 c 4.6125,0 9.1875,-3.3 9.1875,-10.0875 0,-6.825 -4.65,-10.2375 -9.1875,-10.2375 -4.65,0 -9.225,3.4125 -9.225,10.2375 0,6.7875 4.575,10.0875 9.225,10.0875 z m 0,-1.5 c -3.7875,0 -6.0375,-2.9625 -6.0375,-8.5875 0,-5.5875 2.25,-8.7375 6.0375,-8.7375 3.75,0 6.0375,3.15 6.0375,8.7375 0,5.625 -2.2875,8.5875 -6.0375,8.5875 z"
         style="font-style:normal;font-variant:normal;font-weight:normal;font-stretch:normal;font-size:37.5px;font-family:'Noto Serif CJK JP';-inkscape-font-specification:'Noto Serif CJK JP';fill:#1a1a1a;fill-opacity:1"
         id="path7313" />
      <path
         d="m 252.87256,465.55847 c -0.075,-2.0625 -0.1125,-4.9125 -0.1125,-6.8625 l 0,-3.9 c 0,-5.2875 -1.725,-7.35 -5.1375,-7.35 -2.5125,0 -5.325,1.4625 -7.5,3.8625 l -0.3,-3.45 -0.525,-0.375 -5.4,1.9875 0,1.2 3.3375,0.2625 c 0.075,1.7625 0.15,3.3375 0.15,5.7 l 0,2.0625 c 0,1.9125 -0.0375,4.8 -0.1125,6.9 l -3.15,0.45 0,1.2 9.15,0 0,-1.2 -2.9625,-0.4875 c -0.0375,-2.0625 -0.075,-4.95 -0.075,-6.8625 l 0,-5.925 c 2.4,-2.2125 4.3125,-3 6.15,-3 2.4,0 3.525,1.275 3.525,5.175 l 0,3.75 c 0,1.95 -0.0375,4.8375 -0.075,6.9 l -3.1875,0.45 0,1.2 9.1875,0 0,-1.2 -2.9625,-0.4875 z"
         style="font-style:normal;font-variant:normal;font-weight:normal;font-stretch:normal;font-size:37.5px;font-family:'Noto Serif CJK JP';-inkscape-font-specification:'Noto Serif CJK JP';fill:#1a1a1a;fill-opacity:1"
         id="path7315" />
      <path
         d="m 269.12295,464.95847 c -1.05,0.75 -1.875,1.0875 -2.85,1.0875 -1.5375,0 -2.4375,-0.9375 -2.4375,-3.15 l 0,-13.2 5.6625,0 0,-1.725 -5.625,0 0.225,-5.6625 -2.0625,0 -0.9,5.55 -3.825,0.45 0,1.3875 3.675,0 0,10.0875 c 0,1.4625 -0.0375,2.325 -0.0375,3.2625 0,3.1875 1.575,4.725 4.425,4.725 1.9125,0 3.45,-0.675 4.5,-1.875 l -0.75,-0.9375 z"
         style="font-style:normal;font-variant:normal;font-weight:normal;font-stretch:normal;font-size:37.5px;font-family:'Noto Serif CJK JP';-inkscape-font-specification:'Noto Serif CJK JP';fill:#1a1a1a;fill-opacity:1"
         id="path7317" />
      <path
         d="m 283.65479,462.97097 c -2.4,1.9125 -3.4875,2.5875 -5.0625,2.5875 -2.025,0 -3.45,-1.0125 -3.45,-3.2625 0,-1.5 0.675,-3.075 4.3125,-4.4625 1.0125,-0.4125 2.6625,-0.9375 4.2,-1.35 l 0,6.4875 z m 6.15,2.0625 c -0.5625,0.6 -1.0125,0.9 -1.6875,0.9 -1.0125,0 -1.6125,-0.675 -1.6125,-2.85 l 0,-8.8875 c 0,-4.875 -2.025,-6.75 -6.1875,-6.75 -3.975,0 -6.9,1.8375 -7.6875,4.9125 0.075,0.9 0.7125,1.425 1.65,1.425 0.975,0 1.5375,-0.5625 1.8375,-1.65 l 0.825,-2.775 c 0.975,-0.3375 1.8375,-0.4125 2.625,-0.4125 2.85,0 4.0875,1.0125 4.0875,5.1375 l 0,1.2 c -1.725,0.375 -3.525,0.9 -4.9875,1.35 -5.1,1.8375 -6.5625,3.675 -6.5625,6.1875 0,3.225 2.4,4.95 5.4,4.95 2.4375,0 3.9375,-1.0875 6.225,-3.4125 0.3375,2.0625 1.5375,3.3375 3.45,3.3375 1.3125,0 2.3625,-0.525 3.2625,-1.875 l -0.6375,-0.7875 z"
         style="font-style:normal;font-variant:normal;font-weight:normal;font-stretch:normal;font-size:37.5px;font-family:'Noto Serif CJK JP';-inkscape-font-specification:'Noto Serif CJK JP';fill:#1a1a1a;fill-opacity:1"
         id="path7319" />
      <path
         d="m 308.43232,462.59597 c -1.35,1.9875 -3.4875,3.075 -5.85,3.075 -4.05,0 -6.9,-3.075 -6.9,-8.325 0,-5.2875 2.7,-8.4 6.4875,-8.4 0.7875,0 1.65,0.15 2.55,0.45 l 0.825,2.8125 c 0.2625,0.9375 0.7875,1.6125 1.9125,1.6125 0.9,0 1.5,-0.45 1.65,-1.3875 -0.7125,-2.9625 -3.6,-4.9875 -7.05,-4.9875 -4.875,0 -9.3375,3.7875 -9.3375,10.1625 0,6.225 3.6,10.1625 9.075,10.1625 3.675,0 6.15,-1.8 7.425,-4.8 l -0.7875,-0.375 z"
         style="font-style:normal;font-variant:normal;font-weight:normal;font-stretch:normal;font-size:37.5px;font-family:'Noto Serif CJK JP';-inkscape-font-specification:'Noto Serif CJK JP';fill:#1a1a1a;fill-opacity:1"
         id="path7321" />
      <path
         d="m 322.88271,464.95847 c -1.05,0.75 -1.875,1.0875 -2.85,1.0875 -1.5375,0 -2.4375,-0.9375 -2.4375,-3.15 l 0,-13.2 5.6625,0 0,-1.725 -5.625,0 0.225,-5.6625 -2.0625,0 -0.9,5.55 -3.825,0.45 0,1.3875 3.675,0 0,10.0875 c 0,1.4625 -0.0375,2.325 -0.0375,3.2625 0,3.1875 1.575,4.725 4.425,4.725 1.9125,0 3.45,-0.675 4.5,-1.875 l -0.75,-0.9375 z"
         style="font-style:normal;font-variant:normal;font-weight:normal;font-stretch:normal;font-size:37.5px;font-family:'Noto Serif CJK JP';-inkscape-font-specification:'Noto Serif CJK JP';fill:#1a1a1a;fill-opacity:1"
         id="path7323" />
    </g>
    <g
       style="font-style:normal;font-variant:normal;font-weight:normal;font-stretch:normal;font-size:20px;line-height:125%;font-family:FontAwesome;-inkscape-font-specification:'FontAwesome, Normal';text-align:start;letter-spacing:0px;word-spacing:0px;writing-mode:lr-tb;text-anchor:start;fill:#444444;fill-opacity:1;stroke:none;stroke-width:1px;stroke-linecap:butt;stroke-linejoin:miter;stroke-opacity:1"
       id="text6662">
      <path
         d="m 412.94335,399.80222 0,7.65 -12.075,0 0,-7.65 12.075,0 z m -12.075,18 0,-8.25 12.075,0 0,8.25 -12.075,0 z m -16.575,0 0,-8.25 11.775,0 0,8.25 -11.775,0 z m 11.775,-18 0,7.65 -11.775,0 0,-7.65 11.775,0 z m -20.85,-9.45 20.85,0 0,7.2 -11.325,0 -5.175,-2.25 0,28.5 0.75,0 c 1.95,0 3.975,-1.125 3.975,-1.65 l 0,-2.175 11.775,0 0,8.475 -22.8,0 0.6,2.175 22.2,0 0,8.7 0.975,0 c 1.8,0 3.825,-1.125 3.825,-1.8 l 0,-6.9 22.05,0 c 0.975,0 1.65,-0.375 1.875,-1.2 -2.55,-2.325 -6.6,-5.4 -6.6,-5.4 l -3.6,4.425 -13.725,0 0,-8.475 12.075,0 0,3 0.75,0 c 1.65,0 4.05,-1.275 4.125,-1.725 l 0,-20.55 c 1.425,-0.3 2.625,-0.9 3.15,-1.5 l -6,-4.575 -2.775,2.925 -11.325,0 0,-7.2 21.075,0 c 1.05,0 1.725,-0.375 1.95,-1.125 -2.55,-2.325 -6.6,-5.475 -6.6,-5.475 l -3.6,4.5 -12.825,0 0,-5.775 c 1.95,-0.3 2.475,-1.05 2.7,-2.1 l -7.5,-0.9 0,8.775 -21.375,0 0.525,2.1 z m -18.15,-7.95 c 3.825,3.3 8.25,9.075 9.225,13.725 5.55,4.05 9.6,-8.25 -8.4,-14.325 l -0.825,0.6 z m 13.575,32.025 c 2.025,-0.225 3.15,-0.825 3.675,-1.35 l -6.45,-5.4 -2.85,3.9 -9.075,0 0.375,2.175 9.675,0 0,22.425 c -3.825,2.325 -7.875,4.65 -10.35,5.85 l 3.525,6 c 0.6,-0.375 0.975,-0.825 0.75,-1.725 2.7,-2.475 7.05,-6.9 9.75,-10.2 5.325,8.55 11.55,10.275 25.35,10.275 l 26.475,0 c 0.3,-2.25 1.575,-3.675 3.75,-4.05 l 0,-1.05 c -9.15,0.3 -21.225,0.3 -30.3,0.3 -13.125,0 -18.975,-0.9 -24.3,-6.975 l 0,-20.175 z"
         style="font-style:normal;font-variant:normal;font-weight:normal;font-stretch:normal;font-size:75px;font-family:'Noto Serif CJK JP';-inkscape-font-specification:'Noto Serif CJK JP';fill:#444444;fill-opacity:1"
         id="path7326" />
    </g>
    <g
       style="font-style:normal;font-variant:normal;font-weight:normal;font-stretch:normal;font-size:20px;line-height:125%;font-family:FontAwesome;-inkscape-font-specification:'FontAwesome, Normal';text-align:start;letter-spacing:0px;word-spacing:0px;writing-mode:lr-tb;text-anchor:start;fill:#1a1a1a;fill-opacity:1;stroke:none;stroke-width:1px;stroke-linecap:butt;stroke-linejoin:miter;stroke-opacity:1"
       id="text6666">
      <path
         d="m 456.59716,459.89597 -0.9,5.1 c -1.6875,0.825 -3.45,1.1625 -5.175,1.1625 -5.9625,0 -10.2,-4.5 -10.2,-12.6 0,-8.025 4.5,-12.6 10.4625,-12.6 1.5,0 3,0.3375 4.5375,1.1625 l 0.9,5.0625 2.0625,0 -0.15,-5.8875 c -2.6625,-1.575 -5.325,-2.025 -7.7625,-2.025 -7.9125,0 -13.725,6 -13.725,14.2875 0,8.4 5.55,14.2875 13.725,14.2875 2.8875,0 5.5875,-0.5625 8.1375,-2.025 l 0.1125,-5.925 -2.025,0 z"
         style="font-style:normal;font-variant:normal;font-weight:normal;font-stretch:normal;font-size:37.5px;font-family:'Noto Serif CJK JP';-inkscape-font-specification:'Noto Serif CJK JP';fill:#1a1a1a;fill-opacity:1"
         id="path7294" />
      <path
         d="m 471.57665,467.77097 c 4.6125,0 9.1875,-3.3 9.1875,-10.0875 0,-6.825 -4.65,-10.2375 -9.1875,-10.2375 -4.65,0 -9.225,3.4125 -9.225,10.2375 0,6.7875 4.575,10.0875 9.225,10.0875 z m 0,-1.5 c -3.7875,0 -6.0375,-2.9625 -6.0375,-8.5875 0,-5.5875 2.25,-8.7375 6.0375,-8.7375 3.75,0 6.0375,3.15 6.0375,8.7375 0,5.625 -2.2875,8.5875 -6.0375,8.5875 z"
         style="font-style:normal;font-variant:normal;font-weight:normal;font-stretch:normal;font-size:37.5px;font-family:'Noto Serif CJK JP';-inkscape-font-specification:'Noto Serif CJK JP';fill:#1a1a1a;fill-opacity:1"
         id="path7296" />
      <path
         d="m 503.14227,465.55847 c -0.075,-2.0625 -0.1125,-4.9125 -0.1125,-6.8625 l 0,-3.9 c 0,-5.2875 -1.725,-7.35 -5.1375,-7.35 -2.5125,0 -5.325,1.4625 -7.5,3.8625 l -0.3,-3.45 -0.525,-0.375 -5.4,1.9875 0,1.2 3.3375,0.2625 c 0.075,1.7625 0.15,3.3375 0.15,5.7 l 0,2.0625 c 0,1.9125 -0.0375,4.8 -0.1125,6.9 l -3.15,0.45 0,1.2 9.15,0 0,-1.2 -2.9625,-0.4875 c -0.0375,-2.0625 -0.075,-4.95 -0.075,-6.8625 l 0,-5.925 c 2.4,-2.2125 4.3125,-3 6.15,-3 2.4,0 3.525,1.275 3.525,5.175 l 0,3.75 c 0,1.95 -0.0375,4.8375 -0.075,6.9 l -3.1875,0.45 0,1.2 9.1875,0 0,-1.2 -2.9625,-0.4875 z"
         style="font-style:normal;font-variant:normal;font-weight:normal;font-stretch:normal;font-size:37.5px;font-family:'Noto Serif CJK JP';-inkscape-font-specification:'Noto Serif CJK JP';fill:#1a1a1a;fill-opacity:1"
         id="path7298" />
      <path
         d="m 519.39266,464.95847 c -1.05,0.75 -1.875,1.0875 -2.85,1.0875 -1.5375,0 -2.4375,-0.9375 -2.4375,-3.15 l 0,-13.2 5.6625,0 0,-1.725 -5.625,0 0.225,-5.6625 -2.0625,0 -0.9,5.55 -3.825,0.45 0,1.3875 3.675,0 0,10.0875 c 0,1.4625 -0.0375,2.325 -0.0375,3.2625 0,3.1875 1.575,4.725 4.425,4.725 1.9125,0 3.45,-0.675 4.5,-1.875 l -0.75,-0.9375 z"
         style="font-style:normal;font-variant:normal;font-weight:normal;font-stretch:normal;font-size:37.5px;font-family:'Noto Serif CJK JP';-inkscape-font-specification:'Noto Serif CJK JP';fill:#1a1a1a;fill-opacity:1"
         id="path7300" />
      <path
         d="m 533.9245,462.97097 c -2.4,1.9125 -3.4875,2.5875 -5.0625,2.5875 -2.025,0 -3.45,-1.0125 -3.45,-3.2625 0,-1.5 0.675,-3.075 4.3125,-4.4625 1.0125,-0.4125 2.6625,-0.9375 4.2,-1.35 l 0,6.4875 z m 6.15,2.0625 c -0.5625,0.6 -1.0125,0.9 -1.6875,0.9 -1.0125,0 -1.6125,-0.675 -1.6125,-2.85 l 0,-8.8875 c 0,-4.875 -2.025,-6.75 -6.1875,-6.75 -3.975,0 -6.9,1.8375 -7.6875,4.9125 0.075,0.9 0.7125,1.425 1.65,1.425 0.975,0 1.5375,-0.5625 1.8375,-1.65 l 0.825,-2.775 c 0.975,-0.3375 1.8375,-0.4125 2.625,-0.4125 2.85,0 4.0875,1.0125 4.0875,5.1375 l 0,1.2 c -1.725,0.375 -3.525,0.9 -4.9875,1.35 -5.1,1.8375 -6.5625,3.675 -6.5625,6.1875 0,3.225 2.4,4.95 5.4,4.95 2.4375,0 3.9375,-1.0875 6.225,-3.4125 0.3375,2.0625 1.5375,3.3375 3.45,3.3375 1.3125,0 2.3625,-0.525 3.2625,-1.875 l -0.6375,-0.7875 z"
         style="font-style:normal;font-variant:normal;font-weight:normal;font-stretch:normal;font-size:37.5px;font-family:'Noto Serif CJK JP';-inkscape-font-specification:'Noto Serif CJK JP';fill:#1a1a1a;fill-opacity:1"
         id="path7302" />
      <path
         d="m 558.70204,462.59597 c -1.35,1.9875 -3.4875,3.075 -5.85,3.075 -4.05,0 -6.9,-3.075 -6.9,-8.325 0,-5.2875 2.7,-8.4 6.4875,-8.4 0.7875,0 1.65,0.15 2.55,0.45 l 0.825,2.8125 c 0.2625,0.9375 0.7875,1.6125 1.9125,1.6125 0.9,0 1.5,-0.45 1.65,-1.3875 -0.7125,-2.9625 -3.6,-4.9875 -7.05,-4.9875 -4.875,0 -9.3375,3.7875 -9.3375,10.1625 0,6.225 3.6,10.1625 9.075,10.1625 3.675,0 6.15,-1.8 7.425,-4.8 l -0.7875,-0.375 z"
         style="font-style:normal;font-variant:normal;font-weight:normal;font-stretch:normal;font-size:37.5px;font-family:'Noto Serif CJK JP';-inkscape-font-specification:'Noto Serif CJK JP';fill:#1a1a1a;fill-opacity:1"
         id="path7304" />
      <path
         d="m 573.15243,464.95847 c -1.05,0.75 -1.875,1.0875 -2.85,1.0875 -1.5375,0 -2.4375,-0.9375 -2.4375,-3.15 l 0,-13.2 5.6625,0 0,-1.725 -5.625,0 0.225,-5.6625 -2.0625,0 -0.9,5.55 -3.825,0.45 0,1.3875 3.675,0 0,10.0875 c 0,1.4625 -0.0375,2.325 -0.0375,3.2625 0,3.1875 1.575,4.725 4.425,4.725 1.9125,0 3.45,-0.675 4.5,-1.875 l -0.75,-0.9375 z"
         style="font-style:normal;font-variant:normal;font-weight:normal;font-stretch:normal;font-size:37.5px;font-family:'Noto Serif CJK JP';-inkscape-font-specification:'Noto Serif CJK JP';fill:#1a1a1a;fill-opacity:1"
         id="path7306" />
      <path
         d="m 585.32177,467.77097 c 4.6125,0 9.1875,-3.3 9.1875,-10.0875 0,-6.825 -4.65,-10.2375 -9.1875,-10.2375 -4.65,0 -9.225,3.4125 -9.225,10.2375 0,6.7875 4.575,10.0875 9.225,10.0875 z m 0,-1.5 c -3.7875,0 -6.0375,-2.9625 -6.0375,-8.5875 0,-5.5875 2.25,-8.7375 6.0375,-8.7375 3.75,0 6.0375,3.15 6.0375,8.7375 0,5.625 -2.2875,8.5875 -6.0375,8.5875 z"
         style="font-style:normal;font-variant:normal;font-weight:normal;font-stretch:normal;font-size:37.5px;font-family:'Noto Serif CJK JP';-inkscape-font-specification:'Noto Serif CJK JP';fill:#1a1a1a;fill-opacity:1"
         id="path7308" />
    </g>
    <g
       style="font-style:normal;font-variant:normal;font-weight:normal;font-stretch:normal;font-size:20px;line-height:125%;font-family:FontAwesome;-inkscape-font-specification:'FontAwesome, Normal';text-align:start;letter-spacing:0px;word-spacing:0px;writing-mode:lr-tb;text-anchor:start;fill:#444444;fill-opacity:1;stroke:none;stroke-width:1px;stroke-linecap:butt;stroke-linejoin:miter;stroke-opacity:1"
       id="text6672">
      <path
         d="m 367.00583,454.26805 c -1.65,5.025 -3.675,10.65 -5.4,14.775 -1.5,-0.975 -3.45,-1.8 -5.85,-2.475 l -0.675,0.6 c 2.775,2.475 6.075,6.6 6.9,10.05 3.6,2.475 6.45,-2.7 1.125,-7.125 2.85,-3.225 6,-7.65 8.55,-11.7 1.5,0.075 2.475,-0.45 2.775,-1.275 l -7.425,-2.85 z m -10.575,62.55 c 3.225,-4.275 5.85,-10.575 7.575,-16.65 1.575,-0.075 2.4,-0.75 2.7,-1.65 l -6.9,-1.725 c -0.825,6.9 -2.55,14.325 -4.5,19.425 l 1.125,0.6 z m 21.3,-28.875 c 0.75,1.65 1.275,3.375 1.5,4.875 4.5,3.825 8.85,-5.925 -4.95,-12.825 l -0.975,0.45 c 1.2,1.575 2.55,3.675 3.675,5.85 -4.35,0.225 -8.55,0.45 -12.225,0.6 5.55,-6.3 11.55,-14.325 15.15,-19.875 1.5,0.225 2.55,-0.3 2.925,-1.125 l -7.2,-2.925 c -3.3,6.975 -8.55,16.725 -12.975,24 -3,0.15 -5.55,0.225 -7.2,0.225 l 2.175,5.7 c 0.675,-0.15 1.425,-0.6 1.875,-1.575 3,-0.525 5.775,-0.975 8.25,-1.5 l 0,33.15 0.675,0 c 2.325,0 3.975,-1.125 3.975,-1.575 l 0,-32.4 5.325,-1.05 z m -3,9.15 c 1.875,3.6 3.9,9.15 3.9,13.5 4.275,4.125 9.225,-5.475 -2.925,-13.875 l -0.975,0.375 z m 37.2,-31.2 c -2.175,5.025 -5.1,9.9 -8.925,14.4 -3.45,-3.225 -6.3,-7.05 -8.325,-11.475 0.75,-0.9 1.425,-1.95 2.025,-2.925 l 15.225,0 z m 1.05,32.85 0,16.95 -19.875,0 0,-16.95 19.875,0 z m 2.25,-38.025 -3.225,3 -13.95,0 c 1.05,-1.725 1.95,-3.45 2.85,-5.325 1.575,0.225 2.475,-0.3 2.85,-1.2 l -7.05,-2.775 c -3.6,10.5 -9.6,20.025 -15.675,25.65 l 1.05,0.9 c 4.05,-2.625 8.025,-6.225 11.475,-10.65 1.8,4.8 4.2,9 7.2,12.525 -5.55,5.85 -12.375,10.875 -20.325,14.625 l 0.675,1.2 c 2.55,-0.975 4.95,-1.95 7.275,-3.075 l 0,27.45 0.75,0 c 2.475,0 3.975,-1.05 3.975,-1.5 l 0,-3.6 19.875,0 0,4.65 0.75,0 c 2.325,0 4.05,-1.125 4.05,-1.425 l 0,-22.125 c 1.5,-0.225 2.325,-0.675 2.85,-1.275 l -5.475,-4.125 -2.4,2.85 -18.825,0 -4.05,-1.725 c 5.1,-2.625 9.525,-5.775 13.425,-9.225 4.8,4.65 10.875,8.1 18.15,10.575 0.675,-2.1 2.25,-3.525 4.2,-3.825 l 0.15,-0.75 c -7.5,-1.8 -14.25,-4.65 -19.65,-8.7 4.725,-4.95 8.475,-10.425 11.175,-16.275 1.725,-0.15 2.55,-0.375 3.15,-1.05 l -5.25,-4.8 z"
         style="font-style:normal;font-variant:normal;font-weight:normal;font-stretch:normal;font-size:75px;font-family:'Noto Serif CJK JP';-inkscape-font-specification:'Noto Serif CJK JP';fill:#444444;fill-opacity:1"
         id="path7329" />
    </g>
  </g>
</svg>
