<?xml version="1.0" encoding="UTF-8" standalone="no"?>
<svg
   xmlns:dc="http://purl.org/dc/elements/1.1/"
   xmlns:cc="http://creativecommons.org/ns#"
   xmlns:rdf="http://www.w3.org/1999/02/22-rdf-syntax-ns#"
   xmlns:svg="http://www.w3.org/2000/svg"
   xmlns="http://www.w3.org/2000/svg"
   xmlns:xlink="http://www.w3.org/1999/xlink"
   xmlns:sodipodi="http://sodipodi.sourceforge.net/DTD/sodipodi-0.dtd"
   xmlns:inkscape="http://www.inkscape.org/namespaces/inkscape"
   version="1.1"
   id="svg8474"
   viewBox="0 0 425 772"
   height="772"
   width="425"
   inkscape:version="0.91 r13725"
   sodipodi:docname="J.svg">
  <sodipodi:namedview
     pagecolor="#ffffff"
     bordercolor="#666666"
     borderopacity="1"
     objecttolerance="10"
     gridtolerance="10"
     guidetolerance="10"
     inkscape:pageopacity="0"
     inkscape:pageshadow="2"
     inkscape:window-width="1215"
     inkscape:window-height="686"
     id="namedview4242"
     showgrid="false"
     inkscape:zoom="0.35556995"
     inkscape:cx="-25.373918"
     inkscape:cy="553.52792"
     inkscape:window-x="0"
     inkscape:window-y="0"
     inkscape:window-maximized="0"
     inkscape:current-layer="layer1" />
  <defs
     id="defs8476">
    <linearGradient
       inkscape:collect="always"
       id="linearGradient4148">
      <stop
         style="stop-color:#f7c331;stop-opacity:1;"
         offset="0"
         id="stop4150" />
      <stop
         style="stop-color:#f7c331;stop-opacity:0;"
         offset="1"
         id="stop4152" />
    </linearGradient>
    <clipPath
       id="clipPath6105"
       clipPathUnits="userSpaceOnUse">
      <g
         id="g6107"
         style="font-style:normal;font-variant:normal;font-weight:normal;font-stretch:normal;font-size:20px;line-height:125%;font-family:FontAwesome;-inkscape-font-specification:'FontAwesome, Normal';text-align:start;letter-spacing:0px;word-spacing:0px;writing-mode:lr-tb;text-anchor:start;fill:#fed32e;fill-opacity:1;stroke:none;stroke-width:1px;stroke-linecap:butt;stroke-linejoin:miter;stroke-opacity:1"
         transform="matrix(1.6655346,0.26432071,0,1.2957268,-684.81432,-447.89638)">
        <path
           id="path6109"
           style="font-style:normal;font-variant:normal;font-weight:300;font-stretch:normal;font-size:1000px;font-family:'Hiragino Kaku Gothic Pro';-inkscape-font-specification:'Hiragino Kaku Gothic Pro Light';fill:#fed32e;fill-opacity:1"
           d="m 837,287.33333 c 6,35 8,64 8,112 l 0,446 c 0,100 -38,144 -123,144 -43,0 -78,-13 -102,-39 -14,-15 -22,-29 -35,-60 l -79,33 c 20,40 31,57 50,76 38,38.99997 95,59.99997 165,59.99997 73,0 128,-21 161,-62.99997 28,-36 41,-83 41,-151 l 0,-446 c 0,-50 2,-75 8,-112 l -94,0 z" />
      </g>
    </clipPath>
    <linearGradient
       inkscape:collect="always"
       xlink:href="#linearGradient4148"
       id="linearGradient4154"
       x1="506"
       y1="673.33331"
       x2="931"
       y2="673.33331"
       gradientUnits="userSpaceOnUse" />
  </defs>
  <metadata
     id="metadata8479">
    <rdf:RDF>
      <cc:Work
         rdf:about="">
        <dc:format>image/svg+xml</dc:format>
        <dc:type
           rdf:resource="http://purl.org/dc/dcmitype/StillImage" />
        <dc:title />
      </cc:Work>
    </rdf:RDF>
  </metadata>
  <g
     transform="translate(-237.42857,-133.98121)"
     id="layer1">
    <g
       transform="translate(-268.57143,-153.35209)"
       style="font-style:normal;font-variant:normal;font-weight:normal;font-stretch:normal;font-size:20px;line-height:125%;font-family:FontAwesome;-inkscape-font-specification:'FontAwesome, Normal';text-align:start;letter-spacing:0px;word-spacing:0px;writing-mode:lr-tb;text-anchor:start;fill:url(#linearGradient4154);fill-opacity:1;stroke:none;stroke-width:1px;stroke-linecap:butt;stroke-linejoin:miter;stroke-opacity:1"
       id="g6101">
      <path
         d="m 837,287.33333 c 6,35 8,64 8,112 l 0,446 c 0,100 -38,144 -123,144 -43,0 -78,-13 -102,-39 -14,-15 -22,-29 -35,-60 l -79,33 c 20,40 31,57 50,76 38,38.99997 95,59.99997 165,59.99997 73,0 128,-21 161,-62.99997 28,-36 41,-83 41,-151 l 0,-446 c 0,-50 2,-75 8,-112 l -94,0 z"
         style="font-style:normal;font-variant:normal;font-weight:300;font-stretch:normal;font-size:1000px;font-family:'Hiragino Kaku Gothic Pro';-inkscape-font-specification:'Hiragino Kaku Gothic Pro Light';fill:url(#linearGradient4154);fill-opacity:1"
         id="path6103" />
    </g>
    <g
       clip-path="url(#clipPath6105)"
       style="fill:#fee585;fill-opacity:1"
       transform="matrix(0.60040782,-0.12247969,0,0.7717676,142.59644,108.44395)"
       id="g5496">
      <g
         style="fill:#fee585;fill-opacity:1"
         id="g5486"
         transform="matrix(0.89687909,0.14837599,0,0.90689891,-551.76252,-364.15014)" />
    </g>
  </g>
</svg>
