<?xml version="1.0" encoding="UTF-8" standalone="no"?>
<svg
   xmlns:dc="http://purl.org/dc/elements/1.1/"
   xmlns:cc="http://creativecommons.org/ns#"
   xmlns:rdf="http://www.w3.org/1999/02/22-rdf-syntax-ns#"
   xmlns:svg="http://www.w3.org/2000/svg"
   xmlns="http://www.w3.org/2000/svg"
   xmlns:sodipodi="http://sodipodi.sourceforge.net/DTD/sodipodi-0.dtd"
   xmlns:inkscape="http://www.inkscape.org/namespaces/inkscape"
   version="1.1"
   id="svg4207"
   viewBox="0 0 130 130"
   height="130"
   width="130"
   inkscape:version="0.91 r13725"
   sodipodi:docname="logo.svg">
  <sodipodi:namedview
     pagecolor="#ffffff"
     bordercolor="#666666"
     borderopacity="1"
     objecttolerance="10"
     gridtolerance="10"
     guidetolerance="10"
     inkscape:pageopacity="0"
     inkscape:pageshadow="2"
     inkscape:window-width="1229"
     inkscape:window-height="629"
     id="namedview4188"
     showgrid="false"
     inkscape:zoom="2.5673415"
     inkscape:cx="30.056157"
     inkscape:cy="73.541606"
     inkscape:window-x="0"
     inkscape:window-y="0"
     inkscape:window-maximized="0"
     inkscape:current-layer="layer1" />
  <defs
     id="defs4209" />
  <metadata
     id="metadata4212">
    <rdf:RDF>
      <cc:Work
         rdf:about="">
        <dc:format>image/svg+xml</dc:format>
        <dc:type
           rdf:resource="http://purl.org/dc/dcmitype/StillImage" />
        <dc:title />
      </cc:Work>
    </rdf:RDF>
  </metadata>
  <g
     transform="translate(-330.92856,-145.64961)"
     id="layer1">
    <circle
       r="64.5"
       cy="210.64961"
       cx="395.92856"
       id="path4156"
       style="opacity:1;fill:#ffffff;fill-opacity:1;stroke:#5d5d5d;stroke-width:1;stroke-miterlimit:4;stroke-dasharray:none;stroke-opacity:1" />
    <g
       transform="matrix(0.08653533,0,0,0.08653533,337.62736,177.43816)"
       id="g4798">
      <path
         id="path4822"
         d="m 199.42787,829.54077 c -3.8e-4,-43.0375 -0.2994,-113.68345 -0.66449,-156.99101 l -0.6638,-78.741 -51.0855,-0.259 -51.08551,-0.25899 0,-52.5 0,-52.5 51.25,-0.25908 51.25,-0.25908 0,-156.79092 c 0,-120.61516 0.27687,-157.06779 1.2,-157.99092 0.90245,-0.90245 14.04444,-1.2 53,-1.2 l 51.8,0 0,-154.41821 c 0,-84.930019 0.27314,-155.13002 0.60699,-156 0.54269,-1.41423 6.09691,-1.58179 52.43261,-1.58179 l 51.82562,0 0.71715,2.25 c 0.39443,1.2375 0.53726,94.95 0.31739,208.25 l -0.39976,206 52.25,0.25892 52.25,0.25892 0,-156.30892 c 0,-120.24027 0.2769,-156.58582 1.2,-157.50892 1.7298,-1.7298 101.8702,-1.7298 103.6,0 0.92567,0.92567 1.2,48.93333 1.2,210 l 0,208.8 52,0 52,0 0,-259.41821 c 0,-142.68002 0.27314,-260.13002 0.60699,-261 0.54815,-1.42846 10.76435,-1.58179 105.39301,-1.58179 94.62866,0 104.84486,0.15333 105.39301,1.58179 0.33385,0.86998 0.60699,23.81998 0.60699,50.999997 l 0,49.418213 51,0 51.00003,0 0,-49.418213 c 0,-27.180017 0.2731,-50.130017 0.607,-50.999997 0.5429,-1.41474 6.1815,-1.58179 53.393,-1.58179 47.2115,0 52.8501,0.16705 53.393,1.58179 0.3339,0.86998 0.607,47.669981 0.607,104 l 0,102.41821 51.3,0 c 38.5667,0 51.5979,0.29786 52.5,1.2 1.7298,1.7298 1.7298,101.8702 0,103.6 -0.9021,0.90214 -13.9333,1.2 -52.5,1.2 l -51.3,0 -0.1469,26.25 c -0.081,14.4375 -0.4183,132.45 -0.75,262.25 l -0.6031,236 -52.5,0 -52.5,0 -0.5,-52.5 -0.5,-52.5 -51.50003,0 -51.5,0 -0.25461,104.75 -0.2546,104.75 -42.78578,0 -42.78578,0 -10.20962,7.53838 -10.20961,7.53838 0,44.96164 0,44.9616 -209.87918,0 -209.87918,0 -0.74639,-105 -0.74639,-105 -50.76744,0 c -45.37078,0 -50.83197,0.16815 -51.37443,1.58179 -0.33385,0.86998 -0.60699,48.11998 -0.60699,105 l 0,103.41821 -53,0 -53,0 -7e-4,-78.25 z m 208.75954,-288.5 -0.25884,-52.75 -50.5,0 -50.5,0 -0.25884,52.75 -0.25884,52.75 51.01768,0 51.01768,0 -0.25884,-52.75 z m 316.74116,0.25 0,-51 -52.25,-0.25892 -52.25,-0.25892 0,51.51784 0,51.51784 52.25,-0.25892 52.25,-0.25892 0,-51 z m -106.5,-106 0,-51.5 -51,0 -51,0 0,51.5 0,51.5 51,0 51,0 0,-51.5 z m 525.00003,-314.509 0,-51.009 -51.75,0.259 -51.75,0.259 -0.2603,49.5 c -0.1431,27.225 -0.045,50.0625 0.2186,50.75 0.3746,0.97763 11.7073,1.25 52.0103,1.25 l 51.5314,0 0,-51.009 z"
         style="fill:#64b6f1" />
      <path
         id="path4820"
         d="m 199.42787,829.54077 c -3.8e-4,-43.0375 -0.2994,-113.68345 -0.66449,-156.99101 l -0.6638,-78.741 -51.0855,-0.259 -51.08551,-0.25899 0,-52.5 0,-52.5 51.25,-0.25908 51.25,-0.25908 0,-156.79092 c 0,-120.61516 0.27687,-157.06779 1.2,-157.99092 0.90245,-0.90245 14.04444,-1.2 53,-1.2 l 51.8,0 0,-154.41821 c 0,-84.930019 0.27314,-155.13002 0.60699,-156 0.54269,-1.41423 6.09691,-1.58179 52.43261,-1.58179 l 51.82562,0 0.71715,2.25 c 0.39443,1.2375 0.53726,94.95 0.31739,208.25 l -0.39976,206 52.25,0.25892 52.25,0.25892 0,-156.30892 c 0,-120.24027 0.2769,-156.58582 1.2,-157.50892 1.7298,-1.7298 101.8702,-1.7298 103.6,0 0.92567,0.92567 1.2,48.93333 1.2,210 l 0,208.8 52,0 52,0 0,-259.41821 c 0,-142.68002 0.27314,-260.13002 0.60699,-261 0.54815,-1.42846 10.76435,-1.58179 105.39301,-1.58179 94.62866,0 104.84486,0.15333 105.39301,1.58179 0.33385,0.86998 0.60699,23.81998 0.60699,50.999997 l 0,49.418213 51,0 51.00003,0 0,-49.418213 c 0,-27.180017 0.2731,-50.130017 0.607,-50.999997 0.5429,-1.41474 6.1815,-1.58179 53.393,-1.58179 47.2115,0 52.8501,0.16705 53.393,1.58179 0.3339,0.86998 0.607,47.669981 0.607,104 l 0,102.41821 51.3,0 c 38.5667,0 51.5979,0.29786 52.5,1.2 1.7298,1.7298 1.7298,101.8702 0,103.6 -0.9021,0.90214 -13.9333,1.2 -52.5,1.2 l -51.3,0 -0.1469,26.25 c -0.081,14.4375 -0.4183,132.45 -0.75,262.25 l -0.6031,236 -52.5,0 -52.5,0 -0.5,-52.5 -0.5,-52.5 -51.50003,0 -51.5,0 -0.25461,104.75 -0.2546,104.75 -42.78578,0 -42.78578,0 -10.20962,7.53838 -10.20961,7.53838 0,44.96164 0,44.9616 -210,0 -210,0 -0.14653,-32.25 c -0.0806,-17.7375 -0.41809,-112.125 -0.75,-209.75 l -0.60347,-177.5 -49.94056,-0.25944 c -27.4673,-0.1427 -50.26633,0.0823 -50.66451,0.5 -0.90249,0.94673 -1.97702,176.31375 -1.93016,315.00944 l 0.0352,104.25 -53,0 -53,0 -7e-4,-78.25 z m 525.5007,-288.25 0,-51 -52.25,-0.25892 -52.25,-0.25892 0,51.51784 0,51.51784 52.25,-0.25892 52.25,-0.25892 0,-51 z m -106.5,-106 0,-51.5 -51,0 -51,0 0,51.5 0,51.5 51,0 51,0 0,-51.5 z m 525.00003,-314.509 0,-51.009 -51.75,0.259 -51.75,0.259 -0.2603,49.5 c -0.1431,27.225 -0.045,50.0625 0.2186,50.75 0.3746,0.97763 11.7073,1.25 52.0103,1.25 l 51.5314,0 0,-51.009 z"
         style="fill:#ecc514" />
      <path
         id="path4818"
         d="m 199.42787,829.54077 c -3.8e-4,-43.0375 -0.2994,-113.68345 -0.66449,-156.99101 l -0.6638,-78.741 -51.0855,-0.259 -51.08551,-0.25899 0,-52.5 0,-52.5 51.25,-0.25908 51.25,-0.25908 0,-156.79092 c 0,-120.61516 0.27687,-157.06779 1.2,-157.99092 0.90245,-0.90245 14.04444,-1.2 53,-1.2 l 51.8,0 0,-154.41821 c 0,-84.930019 0.27314,-155.13002 0.60699,-156 0.54269,-1.41423 6.09691,-1.58179 52.43261,-1.58179 l 51.82562,0 0.71715,2.25 c 0.39443,1.2375 0.53726,94.95 0.31739,208.25 l -0.39976,206 52.25,0.25892 52.25,0.25892 0,-156.30892 c 0,-120.24027 0.2769,-156.58582 1.2,-157.50892 1.7298,-1.7298 101.8702,-1.7298 103.6,0 0.92567,0.92567 1.2,48.93333 1.2,210 l 0,208.8 52,0 52,0 0,-259.41821 c 0,-142.68002 0.27314,-260.13002 0.60699,-261 0.54815,-1.42846 10.76435,-1.58179 105.39301,-1.58179 94.62866,0 104.84486,0.15333 105.39301,1.58179 0.33385,0.86998 0.60699,23.81998 0.60699,50.999997 l 0,49.418213 51,0 51.00003,0 0,-49.418213 c 0,-27.180017 0.2731,-50.130017 0.607,-50.999997 0.5429,-1.41474 6.1815,-1.58179 53.393,-1.58179 47.2115,0 52.8501,0.16705 53.393,1.58179 0.3339,0.86998 0.607,47.669981 0.607,104 l 0,102.41821 51.3,0 c 38.5667,0 51.5979,0.29786 52.5,1.2 1.7298,1.7298 1.7298,101.8702 0,103.6 -0.9021,0.90214 -13.9333,1.2 -52.5,1.2 l -51.3,0 -0.1469,26.25 c -0.081,14.4375 -0.4183,132.45 -0.75,262.25 l -0.6031,236 -52.5,0 -52.5,0 -0.5,-52.5 -0.5,-52.5 -51.50003,0 -51.5,0 -0.25461,104.75 -0.2546,104.75 -41.32873,0 c -22.7308,0 -41.61715,-0.28842 -41.96967,-0.64094 -0.35251,-0.35252 4.01333,-5.49804 9.70188,-11.4345 12.93226,-13.49586 24.59451,-30.55869 33.63219,-49.20666 6.18318,-12.75812 15.56803,-38.20755 16.49039,-44.7179 0.1948,-1.375 1.24987,-6.325 2.34459,-11 2.30694,-9.85171 5.56496,-31.27268 7.37662,-48.5 0.98651,-9.38088 1.27419,-80.6428 1.31804,-326.5 0.0511,-286.16423 0.20911,-316.49706 1.75425,-336.66543 1.50381,-19.628901 3.97907,-41.226252 6.54257,-57.085896 0.63845,-3.949898 0.52428,-5.520664 -0.46069,-6.338117 -1.49084,-1.237287 -109.09134,-0.931725 -111.00757,0.315237 -0.81452,0.530035 -0.75153,2.957492 0.23354,9 2.27586,13.9604 5.27518,43.317096 6.41352,62.774206 1.46122,24.97595 1.38568,622.99205 -0.081,641.5 -4.57729,57.7593 -21.29184,95.70149 -52.6541,119.52534 -14.92232,11.3355 -40.81368,21.14098 -64.68677,24.49792 -13.32891,1.87426 -45.82528,2.12867 -59.60982,0.46668 -54.1025,-6.52311 -95.24207,-32.97874 -120.83842,-77.70758 -4.25417,-7.43404 -16.28203,-32.54001 -18.47108,-38.55504 -0.35483,-0.97498 -1.21784,-1.99129 -1.91782,-2.25848 -2.16263,-0.8255 -94.22654,37.98277 -94.59611,39.87568 -0.37722,1.93209 11.8084,25.56982 22.62436,43.88687 19.53788,33.08777 46.65777,61.09754 78.69907,81.28137 51.1038,32.19191 124.11576,45.79724 203.71614,37.96138 35.47103,-3.49179 65.13456,-11.67457 92.59557,-25.54278 8.62856,-4.35754 16.25079,-7.92473 16.93829,-7.92708 0.98113,-0.003 1.25,9.46011 1.25,43.99572 l 0,44 -210,0 -210,0 -0.14653,-32.25 c -0.0806,-17.7375 -0.41809,-112.125 -0.75,-209.75 l -0.6035,-177.5 -49.94056,-0.25944 c -27.4673,-0.1427 -50.26633,0.0823 -50.66451,0.5 -0.90249,0.94673 -1.97702,176.31375 -1.93016,315.00944 l 0.0352,104.25 -53,0 -53,0 -7e-4,-78.25 z m 525.5007,-288.25 0,-51 -52.25,-0.25892 -52.25,-0.25892 0,51.51784 0,51.51784 52.25,-0.25892 52.25,-0.25892 0,-51 z m -106.5,-106 0,-51.5 -51,0 -51,0 0,51.5 0,51.5 51,0 51,0 0,-51.5 z m 525.00003,-314.509 0,-51.009 -51.75,0.259 -51.75,0.259 -0.2603,49.5 c -0.1431,27.225 -0.045,50.0625 0.2186,50.75 0.3746,0.97763 11.7073,1.25 52.0103,1.25 l 51.5314,0 0,-51.009 z"
         style="fill:#8e8e8e" />
      <path
         id="path4816"
         d="m 199.42857,906.79077 c 0,-0.55 0.44724,-1 0.99386,-1 1.2853,0 0.277,-306.8176 -1.02697,-312.5 -0.55396,-2.41398 -0.63024,-86.47294 -0.1924,-212 l 0.72551,-208 53,-0.5 53,-0.5 -0.25145,-156.25 -0.25144,-156.25 51.90977,0 51.90978,0 -0.15833,208.75 -0.15833,208.75 53,0 53,0 0.5,-157 0.5,-157 51.5,0 51.5,0 0.31353,108 c 0.17244,59.4 0.005,153.5625 -0.37193,209.25 l -0.68546,101.25 -50.12807,0.0153 c -27.57044,0.008 -50.69463,0.37499 -51.38709,0.81459 -0.9913,0.62932 -1.20393,11.94907 -1,53.23469 l 0.25902,52.43542 51.5,0 51.5,0 0.25884,-52.74124 0.25883,-52.74124 53.24117,-0.25876 53.24116,-0.25876 -0.40823,-261.25 -0.40823,-261.25 105.14923,0 105.14923,0 0.259,51.75 0.259,51.75 51.5,0 51.50003,0 0.259,-51.75 0.259,-51.75 52.991,0 52.991,0 0,104.39301 c 0,94.27028 0.1534,104.45187 1.5818,105 0.87,0.33385 24.27,0.60699 52,0.60699 l 50.4182,0 0,51 0,51 -50.4182,0 c -27.73,0 -51.13,0.27314 -52,0.60699 -1.4295,0.54854 -1.5833,-4.28985 -1.5971,-50.25 -0.01,-27.97135 -0.375,-51.42355 -0.8146,-52.11601 -0.6293,-0.9913 -11.9491,-1.20393 -53.2347,-1 l -52.4354,0.25902 0,52 0,52 52.75,0.25884 52.75,0.25884 -7e-4,79.24116 c -4e-4,43.58264 -0.2994,114.67866 -0.6646,157.99116 l -0.6638,78.75 -51.3263,0 -51.3263,0 -0.2592,50.75 -0.2591,50.75 -52.50003,0 -52.5,0 -0.25916,-50.75 -0.25917,-50.75 -4.36839,0 c -2.40261,0 -4.82613,-0.5625 -5.38558,-1.25 -0.68134,-0.83728 -1.13044,-82.30785 -1.36018,-246.75 -0.31596,-226.15904 -0.20575,-247.24624 1.39899,-267.66543 1.54575,-19.668559 4.05823,-41.444785 6.58641,-57.085896 0.63845,-3.949898 0.52428,-5.520664 -0.46069,-6.338117 -1.49084,-1.237287 -109.09134,-0.931725 -111.00757,0.315237 -0.81452,0.530035 -0.75153,2.957492 0.23354,9 2.27492,13.954634 5.27489,43.312966 6.41455,62.774206 1.44829,24.73168 1.35348,607.4098 -0.0993,610.12431 -0.96066,1.79505 -3.10902,1.87569 -49.96863,1.87569 l -48.96482,0 -0.14102,47.25 c -0.0776,25.9875 -0.41506,64.3182 -0.75,85.17933 l -0.60898,37.92933 -3,0.80897 c -14.84643,4.00344 -55.17283,5.26116 -76.5,2.38591 -14.9726,-2.01855 -23.88671,-4.32085 -38.19742,-9.86547 -16.11887,-6.24518 -26.62796,-11.89288 -37.88813,-20.36147 -23.77099,-17.87778 -42.27799,-43.44805 -57.77551,-79.82573 -1.63996,-3.84952 -3.57961,-7.35636 -4.31034,-7.79296 -1.95584,-1.16861 -94.22942,37.472 -94.65203,39.63661 -0.37722,1.93209 11.8084,25.56982 22.62436,43.88687 18.76158,31.7731 42.31232,56.56348 75.52274,79.498 l 4.67633,3.22939 0,43.93882 c 0,24.1664 -0.27314,44.6506 -0.60699,45.5206 -0.54286,1.4147 -6.16908,1.5818 -53.25,1.582 l -52.64301,3e-4 0.24022,-61.25027 c 0.20859,-53.18517 -0.90956,-250.64646 -2.32734,-411.00023 l -0.44871,-50.75 -49.98209,0 -49.98208,0 0,50.3 c 0,38.90646 -0.28314,50.58323 -1.25,51.55039 -0.97255,0.97285 -1.22524,13.50237 -1.13843,56.45 0.0614,30.35979 -0.34776,124.25073 -0.90917,208.64655 -0.77324,116.23936 -0.73968,153.54066 0.13842,153.83336 5.36076,1.7869 -4.7473,2.2197 -51.84082,2.2197 -34.66667,0 -53,-0.3459 -53,-1 z m 527.77702,-363.5 c 0.15236,-27.5 0.0303,-51.0164 -0.27123,-52.25868 l -0.54825,-2.25867 -53.72877,0.25867 -53.72877,0.25868 -0.26012,51 c -0.14306,28.05 -0.0432,51.56642 0.22196,52.2587 0.38088,0.99449 11.77056,1.2044 54.26011,1 l 53.77805,-0.2587 0.27702,-50 z m 311.74301,-158.25 c -0.4059,-57.0625 -0.9405,-104.0875 -1.188,-104.5 -0.2475,-0.4125 -22.897,-0.75 -50.33203,-0.75 -27.43508,0 -50.08448,0.3375 -50.33199,0.75 -0.24751,0.4125 -0.78212,47.4375 -1.18803,104.5 l -0.738,103.75 52.25802,0 52.25803,0 -0.738,-103.75 z m -420.27003,521.2542 c -1.48378,-1.6853 -1.79535,-51.09459 -0.33673,-53.39811 0.73499,-1.16072 2.36354,-1.20651 9.73469,-0.27367 28.44797,3.60015 58.36211,3.8121 90.56818,0.64172 35.47103,-3.49179 65.13456,-11.67457 92.59557,-25.54278 8.62856,-4.35754 16.25079,-7.92473 16.93829,-7.92708 0.98113,-0.003 1.25,9.46011 1.25,43.99572 l 0,44 -104.75,-0.038 c -89.19221,-0.032 -104.93565,-0.2489 -106,-1.4578 z M 852.12096,802.14983 c -0.35251,-0.35252 4.01333,-5.49804 9.70188,-11.4345 19.20816,-20.04526 35.38129,-47.79944 45.05177,-77.31182 l 4.78823,-14.61274 11.27587,0 c 9.35964,0 11.37904,0.26881 11.88287,1.58179 0.33385,0.86998 0.60699,23.72998 0.60699,50.8 0,36.9475 -0.29917,49.51738 -1.2,50.41821 -0.89347,0.89347 -11.45185,1.2 -41.33333,1.2 -22.07334,0 -40.42176,-0.28842 -40.77428,-0.64094 z"
         style="fill:#767676" />
      <path
         id="path4814"
         d="m 409.42857,906.87407 c 0,-0.5041 0.53535,-1.0951 1.18967,-1.3132 0.91954,-0.3065 0.92032,-30.809 0.003,-134.33332 -0.65243,-73.66523 -0.89007,-166.85553 -0.52808,-207.08956 0.47263,-52.53237 0.34615,-73.95537 -0.44869,-76 -0.77595,-1.99718 -1.19739,-33.7474 -1.41115,-106.34722 l -0.30475,-103.5 54,-0.5 54,-0.5 -0.41212,-155.7022 c -0.33297,-125.80078 -0.16542,-155.99944 0.87245,-157.25 1.12797,-1.35912 7.34992,-1.5478 51.03967,-1.5478 42.971,0 49.92458,0.20419 50.99799,1.49757 0.98702,1.18929 1.08889,44.31477 0.49485,209.49099 l -0.74803,207.99342 -51.1224,0.25901 -51.12241,0.25901 0,53 0,53 51.25,0.25908 51.25,0.25908 0,52.49092 0,52.49092 51.75,0.0136 c 28.4625,0.008 52.7625,0.285 54,0.61664 l 2.25,0.60297 -0.001,34.63337 c -5.9e-4,19.04835 -0.29964,57.28516 -0.66454,84.97068 l -0.66346,50.33731 -2.27614,0.86539 c -9.56741,3.63752 -53.16,5.38962 -73.39477,2.94993 -11.66981,-1.40703 -28.06047,-4.8295 -29.75,-6.21199 -0.94999,-0.77735 -1.25,-8.29417 -1.25,-31.31861 0,-16.66267 -0.27314,-31.00757 -0.60699,-31.87755 -0.54006,-1.4071 -5.17951,-1.58174 -42.02211,-1.58174 l -41.41504,0 -3.06134,-4.75 c -2.66539,-4.13565 -8.32258,-15.02692 -19.36036,-37.27275 -1.63116,-3.28749 -3.53343,-5.97725 -4.22725,-5.97725 -1.97221,0 -92.6299,37.89433 -94.04633,39.31076 -2.29607,2.29607 20.51986,45.00493 34.38461,64.36413 8.52971,11.90994 22.86294,27.87534 33.53661,37.3555 5.12496,4.5519 11.28409,10.02958 13.68695,12.17261 2.40285,2.14304 7.69035,6.13777 11.75,8.87719 l 7.38116,4.98076 0,43.88775 c 0,24.1382 0.27314,44.5995 0.60699,45.4695 0.5488,1.4302 -4.48422,1.5818 -52.5,1.5818 -31.51939,0 -53.10699,-0.3726 -53.10699,-0.9167 z m 210.23418,-26.8333 0.26582,-27.75 2.5,0.14409 c 1.375,0.0793 8.125,0.75425 15,1.5 18.19029,1.97315 63.59844,1.71022 82,-0.47482 37.21771,-4.41931 65.04459,-12.22012 91.81171,-25.73791 8.62856,-4.35754 16.25079,-7.92473 16.93829,-7.92708 0.98113,-0.003 1.25,9.46011 1.25,43.99572 l 0,44 -105.01582,0 -105.01582,0 0.26582,-27.75 z m -418.64595,-156 c -1.3814,-146.84773 -1.73175,-548.37214 -0.4798,-549.88065 0.93553,-1.12724 10.39862,-1.36935 53.52327,-1.36935 l 52.38682,0 -0.25926,-156.50004 -0.25926,-156.50004 51.5,-5e-5 51.5,-5e-5 -0.19556,104.75009 c -0.10755,57.61255 -0.49996,151.66259 -0.87202,209.00009 l -0.67646,104.25 -49.74789,0 -49.74789,0 -1.14701,104.75 c -1.10913,101.2907 -2.68255,303.52252 -2.97206,382 l -0.14111,38.25 -50.83548,0 -50.83549,0 -0.7408,-78.75 z m 651.10416,78.10906 c -0.35251,-0.35252 4.01333,-5.49804 9.70188,-11.4345 19.20816,-20.04526 35.38129,-47.79944 45.05177,-77.31182 l 4.78823,-14.61274 11.27587,0 c 9.35964,0 11.37904,0.26881 11.88287,1.58179 0.33385,0.86998 0.60699,23.72998 0.60699,50.8 0,36.9475 -0.29917,49.51738 -1.2,50.41821 -0.89347,0.89347 -11.45185,1.2 -41.33333,1.2 -22.07334,0 -40.42176,-0.28842 -40.77428,-0.64094 z m 83.54853,-261.60906 0.25908,-51.25 51.5,0 51.50003,0 0.2591,51.25 0.259,51.25 -52.01813,0 -52.01816,0 0.25908,-51.25 z M 619.93786,487.67301 c -0.29119,-0.76023 -0.4124,-24.55724 -0.26936,-52.88224 l 0.26007,-51.5 53.41044,-0.25884 53.41044,-0.25885 -0.7149,-261.49115 -0.7149,-261.49116 105.02113,0 105.02112,0 0,51.166667 c 0,28.141666 0.37917,51.545833 0.84261,52.009273 0.46343,0.46343 23.76593,0.72593 51.78333,0.58333 l 50.94076,-0.25927 0.259,-51.75 0.259,-51.75 53.1555,0 53.1555,0 -0.6638,75.75 c -0.3651,41.6625 -0.6641,88.4625 -0.6645,104 l -7e-4,28.25 -51.5657,0 c -33.6333,0 -52.2385,0.36 -53.5001,1.03518 -1.8738,1.00287 -1.9342,2.6416 -1.9342,52.49075 l 0,51.45557 -50.25003,0.25925 -50.25,0.25925 -0.74923,52.5 c -0.41207,28.875 -1.08707,75.9 -1.5,104.5 l -0.75077,52 -4.5,0 -4.5,0 -0.61951,-63 c -0.34074,-34.65 -0.74078,-121.725 -0.889,-193.5 -0.23429,-113.45604 -0.0545,-133.33246 1.37666,-152.18722 1.45781,-19.205931 3.92552,-40.730785 6.48477,-56.564106 0.63845,-3.949898 0.52428,-5.520664 -0.46069,-6.338117 -1.49084,-1.237287 -109.09134,-0.931725 -111.00757,0.315237 -0.81456,0.530064 -0.75206,2.957164 0.23177,9 2.34459,14.400887 5.22596,42.588696 6.4168,62.774206 1.86968,31.69206 0.9936,503.27224 -0.9371,504.42947 -0.32787,0.19652 -46.59992,0.6898 -102.82677,1.09617 -86.57295,0.62569 -102.31172,0.52714 -102.76007,-0.6434 z M 1040.9018,381.54077 c -0.5205,-1.40258 -1.3583,-76.65048 -1.7284,-155.25 l -0.2448,-52 51.9409,-0.2591 c 31.1291,-0.15528 52.3142,0.11419 52.8725,0.67255 0.5732,0.57317 0.6443,40.78589 0.1847,104.5091 l -0.7469,103.57745 -50.907,0 c -39.8115,0 -51.0081,-0.27245 -51.371,-1.25 z m 104.5268,-260.75 0,-51 52,0 52,0 0,51 0,51 -52,0 -52,0 0,-51 z"
         style="fill:#de3935" />
      <path
         id="path4812"
         d="m 409.42857,906.87407 c 0,-0.5041 0.53535,-1.0951 1.18967,-1.3132 0.91954,-0.3065 0.92032,-30.809 0.003,-134.33332 -0.65243,-73.66523 -0.89007,-166.85553 -0.52808,-207.08956 0.47263,-52.53237 0.34615,-73.95537 -0.44869,-76 -0.77595,-1.99718 -1.19739,-33.7474 -1.41115,-106.34722 l -0.30475,-103.5 54,-0.5 54,-0.5 -0.41212,-155.7022 c -0.33297,-125.80078 -0.16542,-155.99944 0.87245,-157.25 1.12797,-1.35912 7.34992,-1.5478 51.03967,-1.5478 42.971,0 49.92458,0.20419 50.99799,1.49757 0.98702,1.18929 1.08889,44.31477 0.49485,209.49099 l -0.74803,207.99342 -51.1224,0.25901 -51.12241,0.25901 0,53 0,53 51.25,0.25908 51.25,0.25908 0,52.49092 0,52.49092 51.75,0.0136 c 28.4625,0.008 52.7625,0.285 54,0.61664 l 2.25,0.60297 -0.001,34.63337 c -5.9e-4,19.04835 -0.29964,57.28516 -0.66454,84.97068 l -0.66346,50.33731 -2.27614,0.86539 c -9.56741,3.63752 -53.16,5.38962 -73.39477,2.94993 -11.66981,-1.40703 -28.06047,-4.8295 -29.75,-6.21199 -0.94999,-0.77735 -1.25,-8.29417 -1.25,-31.31861 0,-16.66267 -0.27314,-31.00757 -0.60699,-31.87755 -0.54006,-1.4071 -5.17951,-1.58174 -42.02211,-1.58174 l -41.41504,0 -3.06134,-4.75 c -2.66539,-4.13565 -8.32258,-15.02692 -19.36036,-37.27275 -1.63116,-3.28749 -3.53343,-5.97725 -4.22725,-5.97725 -1.97221,0 -92.6299,37.89433 -94.04633,39.31076 -2.29607,2.29607 20.51986,45.00493 34.38461,64.36413 8.52971,11.90994 22.86294,27.87534 33.53661,37.3555 5.12496,4.5519 11.28409,10.02958 13.68695,12.17261 2.40285,2.14304 7.69035,6.13777 11.75,8.87719 l 7.38116,4.98076 0,43.88775 c 0,24.1382 0.27314,44.5995 0.60699,45.4695 0.5488,1.4302 -4.48422,1.5818 -52.5,1.5818 -31.51939,0 -53.10699,-0.3726 -53.10699,-0.9167 z m 210.23418,-26.8333 0.26582,-27.75 2.5,0.14409 c 1.375,0.0793 8.125,0.75425 15,1.5 18.19029,1.97315 63.59844,1.71022 82,-0.47482 37.32139,-4.43162 64.93619,-12.18771 92.07645,-25.86124 8.80145,-4.43425 16.1959,-7.86901 16.43212,-7.63279 0.23622,0.23621 0.55592,20.0936 0.71046,44.12756 l 0.28097,43.698 -104.76582,-4e-4 -104.76582,-4e-4 0.26582,-27.75 z m 106.51363,-12.441 c -0.17109,-7.3199 -0.31154,-1.609 -0.31211,12.691 -5.7e-4,14.3 0.13941,20.2891 0.31107,13.309 0.17166,-6.98 0.17212,-18.68 10e-4,-26 z M 201.0168,724.04077 c -1.3814,-146.84773 -1.73175,-548.37214 -0.4798,-549.88065 0.93553,-1.12724 10.39862,-1.36935 53.52327,-1.36935 l 52.38682,0 -0.25926,-156.50004 -0.25926,-156.50004 51.5,-5e-5 51.5,-5e-5 -0.19556,104.75009 c -0.10755,57.61255 -0.49996,151.66259 -0.87202,209.00009 l -0.67646,104.25 -49.74789,0 -49.74789,0 -1.14701,104.75 c -1.10913,101.2907 -2.68255,303.52252 -2.97206,382 l -0.14111,38.25 -50.83548,0 -50.83549,0 -0.7408,-78.75 z m 660.66026,66.82669 c 19.30419,-20.14548 35.50349,-47.8716 45.11312,-77.21395 l 4.7038,-14.36274 11.21729,0.5 11.2173,0.5 0,50.5 0,50.5 -41.37005,0.26119 -41.37005,0.26119 10.48859,-10.94569 z M 619.93786,487.67301 c -0.29119,-0.76023 -0.4124,-24.55724 -0.26936,-52.88224 l 0.26007,-51.5 53.41044,-0.25884 53.41044,-0.25885 -0.7149,-261.49115 -0.7149,-261.49116 105.02113,0 105.02112,0 0,51.166667 c 0,28.141666 0.37917,51.545833 0.84261,52.009273 0.46343,0.46343 23.76593,0.72593 51.78333,0.58333 l 50.94076,-0.25927 0.259,-51.75 0.259,-51.75 53.1555,0 53.1555,0 -0.6638,75.75 c -0.3651,41.6625 -0.6641,88.4625 -0.6645,104 l -7e-4,28.25 -51.5657,0 c -33.6333,0 -52.2385,0.36 -53.5001,1.03518 -1.8738,1.00287 -1.9342,2.6416 -1.9342,52.49075 l 0,51.45557 -50.25003,0.25925 -50.25,0.25925 -0.74923,52.5 c -0.41207,28.875 -1.08707,75.9 -1.5,104.5 l -0.75077,52 -4.5,0 -4.5,0 -0.61951,-63 c -0.34074,-34.65 -0.74078,-121.725 -0.889,-193.5 -0.23429,-113.45604 -0.0545,-133.33246 1.37666,-152.18722 1.45781,-19.205931 3.92552,-40.730785 6.48477,-56.564106 0.63845,-3.949898 0.52428,-5.520664 -0.46069,-6.338117 -1.49084,-1.237287 -109.09134,-0.931725 -111.00757,0.315237 -0.81456,0.530064 -0.75206,2.957164 0.23177,9 2.34459,14.400887 5.22596,42.588696 6.4168,62.774206 1.86968,31.69206 0.9936,503.27224 -0.9371,504.42947 -0.32787,0.19652 -46.59992,0.6898 -102.82677,1.09617 -86.57295,0.62569 -102.31172,0.52714 -102.76007,-0.6434 z M 1040.9018,381.54077 c -0.5205,-1.40258 -1.3583,-76.65048 -1.7284,-155.25 l -0.2448,-52 51.9409,-0.2591 c 31.1291,-0.15528 52.3142,0.11419 52.8725,0.67255 0.5732,0.57317 0.6443,40.78589 0.1847,104.5091 l -0.7469,103.57745 -50.907,0 c -39.8115,0 -51.0081,-0.27245 -51.371,-1.25 z m 104.5268,-260.75 0,-51 52,0 52,0 0,51 0,51 -52,0 -52,0 0,-51 z"
         style="fill:#e54513" />
      <path
         id="path4810"
         d="m 409.42857,906.87407 c 0,-0.5041 0.53535,-1.0951 1.18967,-1.3132 0.91954,-0.3065 0.92032,-30.809 0.003,-134.33332 -0.65243,-73.66523 -0.89007,-166.85553 -0.52808,-207.08956 0.47263,-52.53237 0.34615,-73.95537 -0.44869,-76 -0.77595,-1.99718 -1.19739,-33.7474 -1.41115,-106.34722 l -0.30475,-103.5 54,-0.5 54,-0.5 -0.41212,-155.7022 c -0.33297,-125.80078 -0.16542,-155.99944 0.87245,-157.25 1.12797,-1.35912 7.34992,-1.5478 51.03967,-1.5478 42.971,0 49.92458,0.20419 50.99799,1.49757 0.98702,1.18929 1.08889,44.31477 0.49485,209.49099 l -0.74803,207.99342 -51.1224,0.25901 -51.12241,0.25901 0,53 0,53 51.25,0.25908 51.25,0.25908 0,52.49092 0,52.49092 51.75,0.0136 c 28.4625,0.008 52.7625,0.285 54,0.61664 l 2.25,0.60297 -0.001,34.63337 c -5.9e-4,19.04835 -0.29964,57.28516 -0.66454,84.97068 l -0.66346,50.33731 -2.37768,0.90399 c -9.2592,3.52035 -53.70826,5.31844 -72.79323,2.94471 -11.57342,-1.43947 -28.63896,-4.97447 -30.25,-6.26607 -0.95044,-0.76198 -1.25,-8.26244 -1.25,-31.29791 0,-16.66267 -0.27314,-31.00757 -0.60699,-31.87755 -0.54006,-1.4071 -5.17951,-1.58174 -42.02211,-1.58174 l -41.41504,0 -3.06134,-4.75 c -2.66539,-4.13565 -8.32258,-15.02692 -19.36036,-37.27275 -1.63116,-3.28749 -3.53343,-5.97725 -4.22725,-5.97725 -1.97221,0 -92.6299,37.89433 -94.04633,39.31076 -2.29607,2.29607 20.51986,45.00493 34.38461,64.36413 8.52971,11.90994 22.86294,27.87534 33.53661,37.3555 5.12496,4.5519 11.28409,10.02958 13.68695,12.17261 2.40285,2.14304 7.69035,6.13777 11.75,8.87719 l 7.38116,4.98076 0,43.88775 c 0,24.1382 0.27314,44.5995 0.60699,45.4695 0.5488,1.4302 -4.48422,1.5818 -52.5,1.5818 -31.51939,0 -53.10699,-0.3726 -53.10699,-0.9167 z m 210.23418,-26.8333 0.26582,-27.75 2.5,0.14409 c 1.375,0.0793 8.125,0.75425 15,1.5 15.30895,1.66061 63.59813,1.70881 76.90012,0.0768 5.17007,-0.63433 9.78257,-0.91696 10.25,-0.62807 0.46743,0.28885 0.84988,12.64868 0.84988,27.46618 l 0,26.941 -53.01582,0 -53.01582,0 0.26582,-27.75 z m -418.64595,-156 c -1.3814,-146.84773 -1.73175,-548.37214 -0.4798,-549.88065 0.93553,-1.12724 10.39862,-1.36935 53.52327,-1.36935 l 52.38682,0 -0.25926,-156.50004 -0.25926,-156.50004 51.5,-5e-5 51.5,-5e-5 -0.19556,104.75009 c -0.10755,57.61255 -0.49996,151.66259 -0.87202,209.00009 l -0.67646,104.25 -49.74789,0 -49.74789,0 -1.14701,104.75 c -1.10913,101.2907 -2.68255,303.52252 -2.97206,382 l -0.14111,38.25 -50.83548,0 -50.83549,0 -0.7408,-78.75 z M 619.93786,487.67301 c -0.29119,-0.76023 -0.4124,-24.55724 -0.26936,-52.88224 l 0.26007,-51.5 53.41044,-0.25884 53.41044,-0.25885 -0.7149,-261.49115 -0.7149,-261.49116 105.02113,0 105.02112,0 0,51.166667 c 0,28.141666 0.37917,51.545833 0.84261,52.009273 0.46343,0.46343 23.76593,0.72593 51.78333,0.58333 l 50.94076,-0.25927 0.259,-51.75 0.259,-51.75 53.1555,0 53.1555,0 -0.6638,75.75 c -0.3651,41.6625 -0.6641,88.4625 -0.6645,104 l -7e-4,28.25 -51.5657,0 c -33.6333,0 -52.2385,0.36 -53.5001,1.03518 -1.8738,1.00287 -1.9342,2.6416 -1.9342,52.49075 l 0,51.45557 -50.25003,0.25925 -50.25,0.25925 -0.74923,52.5 c -0.41207,28.875 -1.08707,75.9 -1.5,104.5 l -0.75077,52 -4.25915,0.30794 c -2.83269,0.20481 -4.41651,-0.1301 -4.729,-1 -0.8962,-2.4948 -2.21355,-355.43028 -1.41579,-379.30794 0.90613,-27.12108 2.85635,-49.686279 6.40469,-74.106198 1.33478,-9.186044 2.1916,-17.082577 1.90404,-17.54785 -0.75783,-1.226196 -112.13676,-1.088656 -112.89574,0.139413 -0.33495,0.54195 0.29718,6.95445 1.40472,14.25 2.96903,19.55742 4.8693,39.468775 6.18093,64.764635 1.40191,27.03703 0.73358,495.5988 -0.70885,496.97105 -0.48722,0.46351 -46.88964,1.16915 -103.11649,1.56809 -86.56394,0.61419 -102.31177,0.51352 -102.76007,-0.6569 z M 1040.9018,381.54077 c -0.5205,-1.40258 -1.3583,-76.65048 -1.7284,-155.25 l -0.2448,-52 51.9409,-0.2591 c 31.1291,-0.15528 52.3142,0.11419 52.8725,0.67255 0.5732,0.57317 0.6443,40.78589 0.1847,104.5091 l -0.7469,103.57745 -50.907,0 c -39.8115,0 -51.0081,-0.27245 -51.371,-1.25 z m 104.5268,-260.75 0,-51 52,0 52,0 0,51 0,51 -52,0 -52,0 0,-51 z"
         style="fill:#656565" />
      <path
         id="path4808"
         d="m 619.42857,880.84977 c 0,-16.1831 0.38436,-27.17851 0.96255,-27.53585 0.5294,-0.32719 4.6919,-0.12681 9.25,0.44529 24.91322,3.12694 62.52476,3.30106 89.53745,0.41451 l 6.25,-0.66786 0,27.14241 0,27.1425 -53,0 -53,0 0,-26.941 z m -208.34491,-183.809 c -0.32398,-58.7125 -1.06484,-167.5 -1.64635,-241.75 -0.58152,-74.25 -1.04637,-144.3375 -1.03302,-155.75 l 0.0243,-20.75 52.41821,0 c 28.83002,0 53.13002,-0.27314 54,-0.60699 1.43309,-0.54992 1.58179,-15.35658 1.58179,-157.5 l 0,-156.89301 51.00235,0 51.00236,0 -0.25236,208.75 -0.25235,208.75 -50.40879,0.25934 c -35.19693,0.18108 -50.81352,0.59524 -51.75,1.37244 -1.0895,0.9042 -1.34121,10.67399 -1.34121,52.05641 0,33.20415 0.36046,51.61683 1.03518,52.87755 1.00247,1.87312 2.63037,1.93426 51.5,1.93426 l 50.46482,0 0,51.99075 0,51.99075 -50.25,0.25925 -50.25,0.25925 -0.5,33.5 c -0.47638,31.91737 -0.58025,33.38189 -2.19866,31 -0.93426,-1.375 -2.4028,-4.1875 -3.26342,-6.25 -0.86062,-2.0625 -2.08426,-3.75 -2.7192,-3.75 -0.63495,0 -22.45391,8.84648 -48.48658,19.65883 -42.10359,17.48722 -47.33214,19.9014 -47.33214,21.85462 0,2.94562 14.80571,32.08921 23.8016,46.85111 13.2743,21.78261 29.59111,41.20887 48.6984,57.97873 4.4,3.86174 8.15,7.3893 8.33333,7.83903 0.18334,0.44972 -18.09923,0.81768 -40.62792,0.81768 l -40.96126,0 -0.58906,-106.75 z m 242.34491,71.68749 c -12.0881,-1.33539 -30.60801,-4.92539 -32.42257,-6.28496 -1.35299,-1.01375 -1.62039,-11.17717 -2.22061,-84.40253 l -0.6824,-83.25 53.66279,0 53.66279,0 0,84.37756 c 0,66.29064 -0.26795,84.59649 -1.25,85.39892 -4.31004,3.5217 -51.44391,6.29378 -70.75,4.16101 z M 201.09384,620.04077 c -0.36513,-43.3125 -0.66419,-161.4375 -0.66457,-262.5 l -7e-4,-183.75 51.91821,0 c 28.55502,0 52.6338,-0.27459 53.5084,-0.61021 1.44731,-0.55539 1.54093,-14.36938 1.042,-153.75 -0.3015,-84.226885 -0.72699,-154.60229 -0.94553,-156.38979 l -0.39734,-3.25 51.68713,-3.2e-4 51.68713,-3.1e-4 -0.20224,50.750314 c -0.11124,27.912674 -0.50367,98.562816 -0.87208,157.000316 l -0.66983,106.25 -49.72009,0 -49.72008,0 -0.70238,85.25 c -0.38631,46.8875 -1.34924,149.375 -2.13984,227.75 -0.7906,78.375 -1.44556,158.1375 -1.45546,177.25 l -0.018,34.75 -50.83543,0 -50.83543,0 -0.66387,-78.75 z m 419.2514,-132.66622 c -0.22917,-0.22892 -0.29618,-23.62892 -0.14891,-52 l 0.26776,-51.58378 51.90045,0 c 28.54525,0 52.54405,-0.24697 53.33066,-0.54882 1.23644,-0.47447 1.38013,-35.12331 1.06057,-255.75 -0.2033,-140.36065 -0.49392,-258.01368 -0.64581,-261.45118 l -0.27618,-6.25 104.5474,-3.2e-4 104.54739,-3.1e-4 -0.27677,50.516039 c -0.18761,34.242404 0.0653,51.155271 0.78519,52.500311 1.0378,1.93916 2.21994,1.98428 51.99158,1.98428 49.77163,0 50.95383,-0.0451 51.99163,-1.98428 0.7198,-1.34504 0.9728,-18.257907 0.7851,-52.500311 l -0.2767,-50.516039 52.857,3.1e-4 c 47.7877,2.9e-4 52.7988,0.15202 52.25,1.58211 -0.3339,0.86998 -0.607,47.669981 -0.607,104 l 0,102.41821 -47.25,0.14403 c -25.9875,0.0792 -72.675,0.41672 -103.75003,0.75 l -56.5,0.60597 -0.75077,52 c -0.41293,28.6 -1.08793,75.625 -1.5,104.5 l -0.74923,52.5 -4.5,0 -4.5,0 -0.77935,-75 c -0.42864,-41.25 -0.58975,-107.4 -0.35802,-147 0.45221,-77.27648 1.20744,-92.83184 6.1811,-127.312358 1.37347,-9.521797 2.23645,-17.734297 1.91773,-18.25 -0.77932,-1.260973 -112.1436,-1.260973 -112.92292,0 -0.31872,0.515703 0.55123,8.737784 1.93323,18.271291 6.40631,44.192947 7.06619,79.283647 5.81622,309.291067 l -0.78799,145 -49.25,0.25942 -49.25,0.25943 0,50.40879 c 0,27.72483 -0.27314,51.12059 -0.60699,51.99057 -0.54287,1.41471 -6.17629,1.58179 -53.33333,1.58179 -28.99949,0 -52.91385,-0.1873 -53.14301,-0.41622 z M 1041.0952,278.1241 c -0.3666,-0.36666 -0.6666,-23.76666 -0.6666,-52 l 0,-51.33333 51.5,0 51.5,0 0,52 0,52 -50.8333,0 c -27.9584,0 -51.1334,-0.3 -51.5001,-0.66667 z m 104.7952,-107.57423 c -0.2653,-0.69251 -0.3652,-23.5341 -0.2221,-50.7591 l 0.2603,-49.5 51.5,0 51.5,0 0,50.5 0,50.5 -51.2779,0.2591 c -40.489,0.20458 -51.3794,-0.006 -51.7603,-1 z"
         style="fill:#545454" />
      <path
         id="path4806"
         d="m 620.22637,881.07717 c 0.16378,-14.6934 0.43802,-26.85555 0.6094,-27.02694 0.17139,-0.17138 7.68738,0.42548 16.70221,1.32636 13.16465,1.31559 22.39349,1.51455 46.89059,1.01088 16.775,-0.34489 32.6375,-0.89056 35.25,-1.21259 l 4.75,-0.5855 0,25.01889 c 0,13.7604 0.27314,25.7307 0.60699,26.6007 0.54877,1.4301 -4.4624,1.5819 -52.25,1.5826 l -52.85699,9e-4 0.2978,-26.7153 z m 26.7022,-113.7563 c -12.01956,-1.63678 -24.53051,-4.38662 -26.25,-5.76961 -0.98186,-0.78971 -1.25,-18.78553 -1.25,-83.89178 l 0,-82.88639 52.75,0.25884 52.75,0.25884 -0.29386,83.99386 c -0.16163,46.19663 -0.66061,84.36061 -1.10885,84.80885 -3.71444,3.71444 -56.64376,5.94459 -76.59729,3.22739 z m -235.48469,-72.2801 c 0.0119,-2.14294 0.22931,-2.41887 0.98469,-1.25 1.26441,1.95653 1.26441,4 0,4 -0.55,0 -0.99311,-1.2375 -0.98469,-2.75 z m -0.3591,-71.04842 c -0.36093,-35.03587 -0.95242,-127.0351 -1.31443,-204.44274 l -0.6582,-140.74116 53.40821,-0.25884 53.40821,-0.25884 0.25311,-157.25 0.2531,-157.25 50.9969,0 50.99689,0 -7.1e-4,131.25 c -3.9e-4,72.1875 -0.29943,166.0125 -0.66453,208.5 l -0.66382,77.25 -50.13547,0 c -37.66092,0 -50.43405,0.29858 -51.33547,1.2 -1.56946,1.56946 -1.7462,105.8538 -0.18205,107.41795 1.08503,1.08503 0.66698,76.75703 -0.75068,135.88205 -0.76287,31.81645 -0.77734,31.97543 -2.52254,27.71659 -0.9654,-2.35587 -2.40034,-4.53094 -3.18876,-4.83349 -1.09517,-0.42025 -87.78639,34.65531 -95.64975,38.70021 -1.44699,0.74434 -1.65421,-5.04686 -2.25001,-62.88173 z M 201.09308,516.12557 C 200.7276,473.9597 200.42857,379.68073 200.42857,306.61673 l 0,-132.84364 52.75,0.25884 52.75,0.25884 0,52 c 0,28.6 -0.63591,122.7625 -1.41313,209.25 l -1.41314,157.25 -50.67235,0 -50.67236,0 -0.66451,-76.6652 z m 419.33549,-80.3348 0,-52.01768 52.75,0.25884 52.75,0.25884 0,51.5 0,51.5 -52.75,0.25884 -52.75,0.25884 0,-52.01768 z m 106.56766,-263.25 c -0.37205,-57.8875 -0.76447,-151.93754 -0.87205,-209.00009 l -0.19561,-103.75009 104.5,-2.2e-4 104.5,-2.2e-4 -0.28053,51.250309 c -0.18928,34.581009 0.063,51.900821 0.77562,53.250311 1.07735,2.04015 0.87524,44.6051 -0.74074,156 l -0.75435,52 -4.5,0 -4.5,0 -0.32408,-82 c -0.40265,-101.87953 0.8226,-131.141853 7.12189,-170.090521 0.71968,-4.449787 1.13459,-8.612287 0.92202,-9.25 -0.28708,-0.861242 -15.06241,-1.159479 -57.44307,-1.159479 l -57.05657,0 0.59791,5.25 c 0.32885,2.8875 1.52535,12 2.65888,20.25 4.84678,35.27564 5.26802,51.94609 5.07482,200.83547 -0.0991,76.3595 -0.42443,139.472 -0.72297,140.25 -0.45765,1.19262 -8.19397,1.41453 -49.31377,1.41453 l -48.77097,0 -0.67643,-105.25 z m 419.43237,-51.75 0,-50 51,0 51,0 0,50 0,50 -51,0 -51,0 0,-50 z m -839.43702,-155.25 c -0.38355,-56.2375 -0.92246,-103.0375 -1.19758,-104 -0.47182,-1.65069 2.45851,-1.75 51.63457,-1.75 49.17606,0 52.10639,0.0993 51.63457,1.75 -0.27512,0.9625 -0.81403,47.7625 -1.19758,104 l -0.69737,102.25 -49.73962,0 -49.73962,0 -0.69737,-102.25 z M 1039.6786,67.12849 c -1.6245,-0.65548 -1.843,-101.34475 -0.2235,-102.96427 0.6828,-0.68281 0.934,-18.329252 0.75,-52.700302 l -0.2765,-51.673758 52.5,2.1e-4 52.5,2.2e-4 -0.2523,102.75009 c -0.1388,56.51255 -0.4622,103.31259 -0.7186,104.00009 -0.3653,0.97911 -11.5797,1.23289 -51.7477,1.17105 -28.2048,-0.0434 -51.8439,-0.30592 -52.5314,-0.58333 z"
         style="fill:#434343" />
      <path
         id="path4804"
         d="m 661.42857,767.70778 c -12.25583,-0.70957 -25.56429,-2.64138 -35.5,-5.15305 l -5,-1.26396 -0.61288,-36.5 c -0.33709,-20.075 -0.67459,-57.30393 -0.75,-82.73095 l -0.13712,-46.23095 2.25,-0.54607 c 1.2375,-0.30033 24.75,-0.42141 52.25,-0.26905 l 50,0.27702 0.3221,19 c 0.17715,10.45 0.0109,48.335 -0.36956,84.18889 -0.57015,53.73718 -0.93184,65.28106 -2.05888,65.71354 -3.02992,1.16269 -24.62276,3.47583 -35.89366,3.84512 -6.6,0.21625 -17.625,0.0675 -24.5,-0.33054 z M 410.44258,437.93165 c -0.73107,-85.7324 -1.04741,-156.61145 -0.703,-157.50899 0.56825,-1.48081 5.53748,-1.63189 53.67536,-1.63189 l 53.04915,0 -0.52473,51.75 c -0.28859,28.4625 -0.85908,99.225 -1.26775,157.25 l -0.74304,105.5 -51.07839,0.25899 -51.07839,0.25899 -1.32921,-155.8771 z M 200.98459,381.54077 c -0.3785,-58.9875 -0.54595,-129.75 -0.3721,-157.25 l 0.31608,-50 52,0 52,0 0,53.5 c 0,29.425 -0.3924,100.1875 -0.87199,157.25 l -0.87199,103.75 -50.75591,0 -50.75591,0 -0.68818,-107.25 z m 419.68498,54.50892 0.259,-51.75892 52,0 52,0 0,51.5 0,51.5 -52.259,0.25892 -52.25901,0.25893 0.25901,-51.75893 z M 516.98459,171.54077 c -0.3785,-58.9875 -0.54595,-129.75 -0.3721,-157.25 l 0.31608,-50 50.5,0 50.5,0 0.31608,50 c 0.17385,27.5 0.006,98.2625 -0.3721,157.25 l -0.68818,107.25 -49.7558,0 -49.7558,0 -0.68818,-107.25 z m 210.01856,-105 c -0.36829,-58.9875 -0.76073,-129.637647 -0.8721,-157.000326 l -0.20248,-49.750324 104.5,-6.9e-4 104.5,-6.8e-4 -0.25622,22.75101 c -0.14092,12.51306 -0.45867,23.65101 -0.7061,24.75101 -0.44424,1.974891 -1.1571,1.996659 -56.7806,1.733875 -45.02391,-0.212707 -56.68821,-0.0047 -58.11176,1.036203 -1.67782,1.226857 -1.69311,1.821787 -0.2638,10.266125 6.27737,37.086629 7.78082,74.896357 6.94726,174.713797 l -0.65764,78.75 -48.71347,0 -48.71347,0 -0.66962,-107.25 z m 197.80274,-0.38276 c -0.98235,-3.91401 0.42246,-67.68698 2.07875,-94.36724 1.5697,-25.285329 5.47125,-56.881257 6.7432,-54.608416 0.44742,0.799511 0.69813,35.125977 0.55712,76.281036 l -0.25639,74.82738 -4.21692,0.30588 c -3.87045,0.28075 -4.27352,0.0804 -4.90576,-2.43864 z M 1040.4286,-35.12744 c 0,-56.055019 -0.2732,-102.63002 -0.607,-103.5 -0.5488,-1.43016 4.4901,-1.58179 52.5674,-1.58179 50.1664,0 53.146,0.099 52.6734,1.75 -0.2755,0.9625 -0.8149,47.5375 -1.1987,103.5 l -0.6978,101.75 -51.3686,0 -51.3687,0 0,-101.91821 z M 307.42857,-87.20923 c 0,-33.33333 -0.34641,-51 -1,-51 -0.55,0 -1,-0.45 -1,-1 0,-0.65385 18,-1 52,-1 34,0 52,0.34615 52,1 0,0.55 -0.45,1 -1,1 -0.65359,0 -1,17.66667 -1,51 l 0,51 -50,0 -50,0 0,-51 z"
         style="fill:#323232" />
      <path
         id="path4802"
         d="m 621.03556,696.20898 c -0.33385,-0.86998 -0.60699,-23.81998 -0.60699,-51 l 0,-49.41821 51.5,0 51.5,0 0,51 0,51 -50.89301,0 c -45.48528,0 -50.95751,-0.16808 -51.5,-1.58179 z M 410.92691,384.39534 c -0.4101,-56.86748 -0.43843,-103.89248 -0.063,-104.5 0.81007,-1.31071 101.27947,-1.5723 103.33274,-0.26905 1.00837,0.64004 1.16183,11.33895 0.74925,52.23469 -0.28537,28.28638 -0.75137,74.94229 -1.03556,103.67979 l -0.5167,52.25 -50.86056,0 -50.86056,0 -0.74564,-103.39543 z m 209.9636,102.15453 c -0.26525,-0.69251 -0.3652,-23.9841 -0.2221,-51.7591 l 0.26016,-50.5 51.5,0 51.5,0 0,51.5 0,51.5 -51.27789,0.2591 c -40.48902,0.20458 -51.37937,-0.006 -51.76017,-1 z M 200.94002,279.20833 c -0.45656,-63.34557 -0.38654,-103.94247 0.18026,-104.50927 0.55172,-0.55172 21.53852,-0.82189 51.854,-0.66756 50.028,0.25469 50.93397,0.29458 51.31276,2.25927 0.21208,1.1 0.0508,48.0125 -0.3584,104.25 l -0.74399,102.25 -50.74903,0 -50.74903,0 -0.74657,-103.58244 z M 516.94129,69.38345 c -0.40992,-56.87403 -0.44142,-103.89903 -0.07,-104.5 0.95272,-1.54153 100.16184,-1.54153 101.11456,0 0.37142,0.60097 0.33992,47.62597 -0.07,104.5 l -0.7453,103.40732 -49.74198,0 -49.74198,0 -0.7453,-103.40732 z m 210.0539,-103.84268 c -0.38399,-56.2375 -0.92388,-103.0375 -1.19977,-104 -0.47547,-1.65875 4.97716,-1.75 104.56576,-1.75 69.37826,0 105.06739,0.33968 105.06739,1 0,0.55 -0.45,1 -1,1 -0.638,0 -0.99991,8.4165 -0.99976,23.25 l 2.5e-4,23.25 -48.75025,-0.258698 c -26.81263,-0.142283 -52.80024,0.08272 -57.75024,0.5 l -9,0.758698 0.0545,4.5 c 0.03,2.475 1.09197,12.15 2.35994,21.5 2.99922,22.116199 4.7374,56.73949 4.95752,98.75 l 0.17684,33.75 -48.89203,0 -48.89203,0 -0.69815,-102.25 z m 201.88438,-12 c 0.39876,-5.0875 1.5283,-14.65 2.51009,-21.25 l 1.78507,-12 0.12692,21.25 0.12692,21.25 -2.63701,0 -2.63701,0 0.72502,-9.25 z m 112.54903,-41.25 c 0,-33 -0.3466,-50.5 -1,-50.5 -0.55,0 -1,-0.45 -1,-1 0,-0.65409 18.3333,-1 53,-1 34.6667,0 53,0.34591 53,1 0,0.55 -0.45,1 -1,1 -0.6535,0 -1,17.5 -1,50.5 l 0,50.5 -51,0 -51,0 0,-50.5 z"
         style="fill:#212121" />
      <path
         id="path4800"
         d="m 621.42857,435.79077 0,-51 51.25,-2.3e-4 51.25,-2.3e-4 -0.26792,51.00023 -0.26791,51.00023 -50.98209,0 -50.98208,0 0,-51 z m -210,-104 0,-52 51.5,0 51.5,0 0,50.41821 c 0,27.73002 -0.27314,51.13002 -0.60699,52 -0.54249,1.41371 -6.01472,1.58179 -51.5,1.58179 l -50.89301,0 0,-52 z m -210,-105 0,-52 51.25,-2.2e-4 51.25,-2.2e-4 -0.2676,52.00022 -0.2676,52.00022 -50.9824,0 -50.9824,0 0,-52 z m 316,-210 0,-52 50,0 50,0 0,52 0,52 -50,0 -50,0 0,-52 z m 210,-104 c 0,-33.33333 -0.34641,-51 -1,-51 -0.55,0 -1,-0.45 -1,-1 0,-0.65385 18,-1 52,-1 l 52,0 0,24 0,24 -5.25,0.01531 c -8.65703,0.02525 -8.43127,-0.853723 -5.43025,21.142345 1.45143,10.638288 2.93532,22.829842 3.29754,27.092342 l 0.65857,7.75 -47.63793,0 -47.63793,3e-6 0,-51 z"
         style="fill:#101010" />
      <rect
         style="opacity:1;fill:#434343;fill-opacity:1;stroke:none;stroke-width:11.55597401;stroke-miterlimit:4;stroke-dasharray:none;stroke-opacity:1"
         id="rect4730"
         width="104.08896"
         height="99.587814"
         x="515.61456"
         y="907.62122" />
    </g>
  </g>
</svg>
