<?xml version="1.0" encoding="UTF-8" standalone="no"?>
<svg
   xmlns:dc="http://purl.org/dc/elements/1.1/"
   xmlns:cc="http://creativecommons.org/ns#"
   xmlns:rdf="http://www.w3.org/1999/02/22-rdf-syntax-ns#"
   xmlns:svg="http://www.w3.org/2000/svg"
   xmlns="http://www.w3.org/2000/svg"
   xmlns:xlink="http://www.w3.org/1999/xlink"
   xmlns:sodipodi="http://sodipodi.sourceforge.net/DTD/sodipodi-0.dtd"
   xmlns:inkscape="http://www.inkscape.org/namespaces/inkscape"
   version="1.1"
   id="svg4207"
   viewBox="0 0 130 130"
   height="130"
   width="130"
   inkscape:version="0.91 r13725"
   sodipodi:docname="logo.svg">
  <sodipodi:namedview
     pagecolor="#ffffff"
     bordercolor="#666666"
     borderopacity="1"
     objecttolerance="10"
     gridtolerance="10"
     guidetolerance="10"
     inkscape:pageopacity="0"
     inkscape:pageshadow="2"
     inkscape:window-width="1229"
     inkscape:window-height="629"
     id="namedview4188"
     showgrid="false"
     inkscape:zoom="2.8284271"
     inkscape:cx="63.375447"
     inkscape:cy="66.707004"
     inkscape:window-x="96"
     inkscape:window-y="81"
     inkscape:window-maximized="0"
     inkscape:current-layer="layer1" />
  <defs
     id="defs4209">
    <linearGradient
       inkscape:collect="always"
       id="linearGradient4258">
      <stop
         style="stop-color:#dcc7aa;stop-opacity:1"
         offset="0"
         id="stop4260" />
      <stop
         id="stop4268"
         offset="0.60859543"
         style="stop-color:#f7c331;stop-opacity:1" />
      <stop
         style="stop-color:#f7882f;stop-opacity:0.94117647"
         offset="1"
         id="stop4262" />
    </linearGradient>
    <linearGradient
       inkscape:collect="always"
       xlink:href="#linearGradient4258"
       id="linearGradient4264"
       x1="358.95279"
       y1="246.53783"
       x2="424.24969"
       y2="176.40178"
       gradientUnits="userSpaceOnUse"
       gradientTransform="translate(-2.5744698,-2.7554349)" />
  </defs>
  <metadata
     id="metadata4212">
    <rdf:RDF>
      <cc:Work
         rdf:about="">
        <dc:format>image/svg+xml</dc:format>
        <dc:type
           rdf:resource="http://purl.org/dc/dcmitype/StillImage" />
        <dc:title></dc:title>
      </cc:Work>
    </rdf:RDF>
  </metadata>
  <g
     transform="translate(-330.92856,-145.64961)"
     id="layer1">
    <circle
       style="opacity:1;fill:#ffffff;fill-opacity:1;stroke:none;stroke-width:0.5;stroke-miterlimit:4;stroke-dasharray:none;stroke-dashoffset:0;stroke-opacity:1"
       id="path4858"
       cx="395.92856"
       cy="210.64961"
       r="62.5" />
    <g
       id="g4224"
       transform="matrix(1.2208828,0,0,1.2208828,-88.191732,-49.639156)">
      <path
         style="fill:#c8eaf2"
         d="m 393.02769,254.59717 c -0.0256,-0.0685 -0.0577,-1.63341 -0.0713,-3.47759 l -0.0249,-3.35306 -3.30374,0 -3.30375,0 -0.0493,3.40237 -0.0493,3.40236 -3.50099,0 -3.50098,0 -0.0505,-10.30572 c -0.0277,-5.66814 -0.061,-10.31741 -0.074,-10.3317 -0.0129,-0.0143 -1.4991,-0.0143 -3.3026,0 l -3.2791,0.026 -0.0493,6.85405 -0.0493,6.85404 -3.50098,0 -3.50099,0 -0.0493,-10.25641 -0.0493,-10.25641 -3.3174,-0.026 c -2.64678,-0.0207 -3.33983,-0.053 -3.42834,-0.15961 -0.0786,-0.0947 -0.10335,-1.1231 -0.085,-3.52434 l 0.026,-3.39068 3.37771,-0.0259 3.37771,-0.0259 0.002,-10.23046 c 8.9e-4,-6.26916 0.0377,-10.28774 0.0949,-10.37839 0.0795,-0.12594 0.60223,-0.15215 3.51573,-0.17633 l 3.42229,-0.0284 -0.0649,-10.11253 c -0.044,-6.85887 -0.0322,-10.17348 0.0365,-10.30198 0.097,-0.1813 0.2495,-0.18945 3.5447,-0.18945 3.13713,0 3.45164,0.0149 3.53705,0.16752 0.0587,0.10494 0.0733,5.24386 0.039,13.75739 l -0.0548,13.58988 3.31898,0 3.31899,0 0,-10.14972 c 0,-5.58235 0.0269,-10.21993 0.0599,-10.30572 0.053,-0.13824 0.46263,-0.156 3.59773,-0.156 l 3.53786,0 0.0664,0.26455 c 0.0365,0.14551 0.0416,6.33634 0.0113,13.7574 l -0.055,13.49284 3.34941,0 3.34941,0 -0.0707,-16.9892 c -0.0545,-13.08504 -0.0437,-17.03974 0.047,-17.20908 l 0.11767,-0.21986 3.34958,0 3.34959,0 0,-3.26092 c 0,-2.05924 0.0376,-3.33122 0.10209,-3.45168 0.0979,-0.183 0.24205,-0.19075 3.54682,-0.19075 3.30478,0 3.44889,0.008 3.54683,0.19075 0.0675,0.12613 0.10209,2.46479 0.10209,6.90335 l 0,6.7126 3.25444,0 3.25444,0 0,-3.26092 c 0,-2.05924 0.0376,-3.33122 0.10208,-3.45168 0.0979,-0.183 0.24205,-0.19075 3.54683,-0.19075 3.30478,0 3.44889,0.008 3.54683,0.19075 0.0675,0.12614 0.10209,2.46439 0.10209,6.90206 l 0,6.71131 3.37771,0.0259 3.37771,0.0259 0,3.5503 0,3.5503 -3.40237,0.0493 -3.40236,0.0493 -0.0249,17.05137 c -0.0181,12.40394 -0.055,17.08764 -0.13535,17.18442 -0.15187,0.183 -6.68899,0.19698 -6.87127,0.0147 -0.0874,-0.0874 -0.11834,-0.99058 -0.11834,-3.45168 l 0,-3.33333 -3.35306,0 -3.35306,0 -0.002,6.73077 c -7.9e-4,3.70192 -0.0364,6.78564 -0.079,6.85271 -0.0585,0.0921 -0.89768,0.1283 -3.42551,0.14793 l -3.34806,0.026 -0.0493,3.40236 -0.0493,3.40237 -3.37771,0.0259 c -1.85775,0.0143 -3.38737,0.0365 -3.39916,0.0493 -0.0118,0.0129 -0.0451,1.57661 -0.074,3.47503 l -0.0525,3.45168 -3.47895,0.0259 c -2.73069,0.0204 -3.48894,-8.9e-4 -3.52543,-0.0986 z m -13.95223,-30.99372 0,-3.40369 -3.27909,0.026 -3.2791,0.026 -0.0285,3.05719 c -0.0157,1.68146 -0.003,3.20143 0.0291,3.37772 l 0.0576,0.32051 3.24997,0 3.24997,0 0,-3.4037 z m 20.80868,-0.048 0,-3.25443 -3.35306,0 -3.35306,0 0,3.18869 c 0,1.75378 0.0296,3.21827 0.0657,3.25443 0.0362,0.0362 1.54503,0.0658 3.35306,0.0658 l 3.28731,0 0,-3.25444 z m -7.00198,-6.85404 0,-3.30375 -3.25443,0 -3.25444,0 0,3.30375 0,3.30375 3.25444,0 3.25443,0 0,-3.30375 z m 34.51677,-20.71139 0,-3.30508 -3.27909,0.026 -3.2791,0.026 -0.0261,3.15497 c -0.0143,1.73523 -0.005,3.21082 0.0216,3.27909 0.0369,0.0963 0.77817,0.12413 3.30517,0.12413 l 3.25753,0 0,-3.30508 z"
         id="path4250"
         inkscape:connector-curvature="0" />
      <path
         style="fill:#b1d9bd"
         d="m 393.09913,254.60084 c -0.0874,-0.0875 -0.11835,-1.00154 -0.11835,-3.50099 l 0,-3.38264 -3.35305,0 -3.35306,0 0,3.2967 c 0,2.86551 -0.0203,3.31698 -0.15497,3.45168 -0.13463,0.13462 -0.5781,0.15477 -3.37772,0.15346 -1.85841,-8.9e-4 -3.28536,-0.0411 -3.37066,-0.095 -0.13026,-0.0823 -0.15382,-2.14114 -0.19724,-17.23221 l -0.0493,-17.13871 -3.30375,0 -3.30375,0 -0.0493,13.65877 c -0.0271,7.51233 -0.0852,13.71425 -0.12909,13.78205 -0.0612,0.0946 -0.85684,0.12328 -3.42355,0.12328 -3.20496,0 -3.34801,-0.008 -3.44586,-0.19076 -0.0685,-0.12795 -0.10209,-3.53673 -0.10209,-10.35373 l 0,-10.16298 -3.37771,-0.0259 -3.37771,-0.0259 -0.026,-3.39573 c -0.0203,-2.65105 0.001,-3.41308 0.0986,-3.47482 0.0685,-0.0435 1.59997,-0.0798 3.40322,-0.0806 l 3.27864,-0.002 0.0251,-10.33038 0.0251,-10.33037 3.42657,-0.0259 3.42656,-0.0259 0.0251,-10.27978 0.0251,-10.27979 3.50099,0 3.50099,0 0.025,13.73274 0.025,13.73274 3.35271,0 3.35271,0 0,-10.29517 c 0,-9.29687 0.0151,-10.30097 0.156,-10.35503 0.20364,-0.0781 6.58495,-0.0781 6.7886,0 0.14121,0.0542 0.15599,1.36236 0.15599,13.80671 l 0,13.74684 3.35306,0 3.35306,0 0,-17.14004 c 0,-13.19964 0.0272,-17.16724 0.11834,-17.25838 0.0874,-0.0874 0.99058,-0.11834 3.45168,-0.11834 l 3.33333,0 0,-3.34959 c 0,-3.21071 0.008,-3.35382 0.19075,-3.45168 0.29389,-0.15728 6.52812,-0.13769 6.74302,0.0212 0.15334,0.11337 0.16872,0.66987 0.19143,6.92801 l 0.0247,6.80473 3.30375,0 3.30375,0 0.0252,-3.35306 c 0.0226,-3.01215 0.0421,-3.36559 0.19143,-3.47633 0.12502,-0.0927 0.96401,-0.12327 3.38299,-0.12327 2.41872,0 3.25811,0.0306 3.38348,0.12327 0.15334,0.11337 0.16872,0.66988 0.19143,6.92801 l 0.0247,6.80473 3.40236,0.0493 3.40237,0.0493 0.0261,3.40237 c 0.0239,3.11108 0.0117,3.41292 -0.14212,3.52564 -0.12662,0.0928 -0.98067,0.12328 -3.45312,0.12328 l -3.2849,0 -0.0143,9.34418 c -0.008,5.1393 -0.0412,12.8501 -0.074,17.13511 l -0.0597,7.79092 -3.40237,0 -3.40237,0 -0.0493,-3.35305 -0.0493,-3.35306 -3.40236,0 -3.40237,0 -0.0863,6.7788 -0.0863,6.7788 -3.36533,0.0259 -3.36533,0.0259 -0.026,3.39736 c -0.0196,2.56727 -0.0558,3.41628 -0.14793,3.47482 -0.0671,0.0426 -1.59755,0.0781 -3.40105,0.079 l -3.2791,0.002 0,3.38264 c 0,2.49945 -0.0309,3.41354 -0.11834,3.50099 -0.0874,0.0873 -0.98619,0.11834 -3.43195,0.11834 -2.44576,0 -3.34461,-0.031 -3.43195,-0.11834 z m 6.78501,-31.04537 0,-3.35305 -3.35306,0 -3.35306,0 0,3.28731 c 0,1.80802 0.0296,3.31689 0.0657,3.35305 0.0362,0.0362 1.54503,0.0658 3.35306,0.0658 l 3.28731,0 0,-3.35306 z m -6.9267,-6.8787 -0.026,-3.3284 -3.30374,0 -3.30375,0 -0.026,3.3284 -0.026,3.32841 3.35568,0 3.35568,0 -0.026,-3.32841 z m 34.51676,-20.66074 0.026,-3.32841 -3.35437,0 -3.35437,0 0,3.28731 c 0,1.80803 0.0302,3.31749 0.0671,3.35437 0.0369,0.0369 1.53466,0.0554 3.3284,0.0411 l 3.26135,-0.026 0.026,-3.3284 z"
         id="path4248"
         inkscape:connector-curvature="0" />
      <path
         style="fill:#aab0a8"
         d="m 393.07789,251.24285 c -7.9e-4,-1.85774 -0.0371,-3.43379 -0.0806,-3.50232 -0.0617,-0.0973 -0.81392,-0.1189 -3.42551,-0.0986 l -3.34641,0.026 -0.0493,3.40237 -0.0493,3.40236 -3.40237,0 -3.40236,0 -0.0597,-11.58777 c -0.0328,-6.37327 -0.0661,-14.10626 -0.074,-17.18442 l -0.0143,-5.59664 -3.35118,0 -3.35118,0 -0.0658,0.26219 c -0.0362,0.14421 -0.0402,2.64051 -0.009,5.54734 0.0313,2.90683 0.0268,8.96857 -0.01,13.47055 l -0.067,8.1854 -3.40236,0 -3.40237,0 -0.0251,-10.19755 c -0.0181,-7.33604 -0.0561,-10.23483 -0.13535,-10.33038 -0.0884,-0.10649 -0.76289,-0.13282 -3.4032,-0.13282 l -3.29296,0 0.026,-3.37771 0.026,-3.37771 3.3284,-0.026 3.3284,-0.026 0,-10.29858 c 0,-8.13058 0.026,-10.31539 0.12328,-10.37838 0.0678,-0.0439 1.63215,-0.10197 3.47633,-0.12909 l 3.35305,-0.0493 0,-10.15779 c 0,-5.58679 0.0359,-10.21327 0.0798,-10.28107 0.10724,-0.1657 6.6782,-0.17989 6.84331,-0.0148 0.0784,0.0784 0.0933,3.89436 0.0538,13.7574 l -0.0547,13.64889 3.41713,0 3.41713,0 0.0251,-10.28106 0.0251,-10.28107 3.50099,0 3.50098,0 0,13.70809 0,13.70808 3.40237,0 3.40237,0 -0.0395,-16.96252 c -0.0217,-9.32939 -0.008,-17.0618 0.0309,-17.18313 l 0.0704,-0.22061 3.37147,-0.0259 3.37148,-0.0259 0.0526,-3.40237 c 0.0289,-1.8713 0.0622,-3.41346 0.074,-3.42702 0.0118,-0.0136 1.56992,-0.0247 3.46253,-0.0247 3.04688,0 3.44799,0.0179 3.50099,0.156 0.0329,0.0858 0.0599,3.19231 0.0599,6.90335 l 0,6.74736 3.35306,0 3.35306,0 0,-3.29568 c 0,-1.81263 0.0269,-3.36588 0.0599,-3.45168 0.053,-0.13811 0.45317,-0.15599 3.49043,-0.15599 3.03726,0 3.43744,0.0179 3.49044,0.15599 0.0329,0.0858 0.0599,3.19173 0.0599,6.90206 l 0,6.74606 3.37771,0.026 3.37771,0.0259 0,3.45168 0,3.45168 -3.40237,0.0493 -3.40236,0.0493 -0.05,17.11045 c -0.0275,9.41075 -0.0608,17.12155 -0.074,17.13511 -0.0132,0.0136 -1.53284,0.0247 -3.37702,0.0247 -1.84418,0 -3.36267,-0.0111 -3.37442,-0.0247 -0.0117,-0.0136 -0.045,-1.53353 -0.074,-3.37771 l -0.0526,-3.35306 -3.40236,0 -3.40237,0 -0.0493,3.30375 c -0.0271,1.81706 -0.0852,3.35922 -0.12909,3.42702 -0.0612,0.0946 -0.84716,0.12327 -3.37518,0.12327 l -3.29538,0 -0.052,3.37771 c -0.0286,1.85775 -0.0752,4.91988 -0.10363,6.80474 l -0.0517,3.42702 -3.2978,0 c -3.15951,0 -3.30209,0.008 -3.3999,0.19076 -0.0646,0.12078 -0.10208,1.42307 -0.10208,3.55029 l 0,3.35954 -3.45168,0 -3.45168,0 -0.002,-3.37771 z m 6.90487,-27.68738 0,-3.35305 -3.45168,0 -3.45168,0 0,3.28731 c 0,1.80802 0.0296,3.31689 0.0657,3.35305 0.0362,0.0362 1.58941,0.0658 3.45168,0.0658 l 3.38593,0 0,-3.35306 z m -7.00198,-6.85404 0,-3.40237 -3.35305,0 -3.35306,0 0,3.40237 0,3.40237 3.35306,0 3.35305,0 0,-3.40237 z m 34.51677,-20.71135 0,-3.40367 -3.37771,0.0259 -3.37772,0.0259 -0.026,3.25369 c -0.0143,1.78953 -0.005,3.3095 0.0216,3.37771 0.0369,0.0963 0.79897,0.12403 3.40375,0.12403 l 3.35615,0 0,-3.40366 z"
         id="path4246"
         inkscape:connector-curvature="0" />
      <path
         style="fill:#979797"
         d="m 393.20398,254.54007 c -0.0922,-0.0586 -0.1283,-0.91741 -0.14793,-3.52413 l -0.026,-3.44666 -3.35305,-0.0261 c -3.06473,-0.0239 -3.36366,-0.0117 -3.47634,0.14213 -0.0928,0.12662 -0.12327,0.98069 -0.12327,3.45313 l 0,3.2849 -3.35306,0 -3.35305,0 -0.0143,-1.65187 c -0.008,-0.90853 -0.0412,-8.64152 -0.074,-17.18442 l -0.0597,-15.53254 -3.40237,0 -3.40237,0 -0.0597,11.63708 c -0.0328,6.40039 -0.0661,12.58013 -0.074,13.73274 l -0.0143,2.09566 -3.33693,0 -3.33693,0 -0.0653,-5.10355 c -0.0359,-2.80695 -0.0654,-7.41346 -0.0654,-10.23669 -7e-5,-3.86083 -0.0294,-5.16247 -0.11844,-5.25148 -0.0872,-0.0872 -0.96866,-0.11834 -3.35306,-0.11834 l -3.23471,0 0,-3.30375 0,-3.30374 3.29319,0 c 2.91199,0 3.30013,-0.0181 3.35306,-0.156 0.0329,-0.0858 0.0599,-4.76717 0.0599,-10.40306 l 0,-10.24707 3.42702,-0.0259 3.42702,-0.0259 0.0251,-10.28107 0.0251,-10.28106 3.45087,0 3.45088,0 0.025,13.73274 0.025,13.73274 3.40236,0 3.40237,0 0.0493,-10.30572 0.0493,-10.30572 3.40237,0 3.40236,0 0.0493,13.7574 0.0493,13.75739 3.40237,0 3.40237,0 0.0493,-17.20907 0.0493,-17.20907 3.40236,-0.0493 3.40237,-0.0493 0.0493,-3.40237 0.0493,-3.40237 3.40236,0 3.40237,0 0.0493,6.90336 0.0493,6.90335 3.40237,0 3.40236,0 0.0493,-3.45168 0.0493,-3.45167 3.40237,0 3.40237,0 0.0493,6.90335 0.0493,6.90335 3.40236,0.0493 3.40237,0.0493 0.026,3.34642 c 0.0203,2.61158 -0.001,3.36378 -0.0986,3.42551 -0.0685,0.0435 -1.61538,0.0798 -3.43744,0.0806 l -3.31283,0.002 -0.0651,11.41518 c -0.0358,6.27836 -0.0941,13.97806 -0.12955,17.11046 l -0.0645,5.69526 -3.23908,0 -3.23908,0 0,-3.28402 c 0,-2.42275 -0.031,-3.31506 -0.11834,-3.40237 -0.16958,-0.16958 -6.89156,-0.16958 -7.06114,0 -0.0873,0.0873 -0.11835,0.97962 -0.11835,3.40237 l 0,3.28402 -3.24637,0 c -1.7855,0 -3.31657,0.0269 -3.40237,0.0599 -0.13806,0.053 -0.15599,0.44976 -0.15599,3.45168 l 0,3.39182 -3.30127,0 -3.30128,0 -0.0518,3.47633 c -0.0285,1.91198 -0.0751,5.02767 -0.10362,6.92374 -0.0385,2.56447 -0.0827,3.46707 -0.17253,3.52413 -0.15845,0.10067 -6.49444,0.1 -6.65298,-7.8e-4 z m 6.7214,-27.59278 c 0.13791,-0.0529 0.15599,-0.43933 0.15599,-3.33333 0,-2.41455 -0.031,-3.30453 -0.11834,-3.39182 -0.0874,-0.0874 -1.00153,-0.11834 -3.50098,-0.11834 l -3.38265,0 0,-3.33334 c 0,-2.4611 -0.031,-3.3643 -0.11834,-3.45167 -0.18384,-0.18384 -6.52239,-0.16803 -6.67566,0.0166 -0.0799,0.0963 -0.10458,1.07973 -0.086,3.42702 l 0.026,3.29203 3.40237,0.0493 3.40236,0.0493 0.0249,3.30374 c 0.0137,1.81706 0.0456,3.35922 0.0709,3.42703 0.0355,0.0952 0.79602,0.12327 3.34477,0.12327 1.81433,0 3.36897,-0.0269 3.45477,-0.0599 z m 27.67079,-30.90661 0,-3.45168 -3.45168,0 -3.45168,0 0,3.38593 c 0,1.86227 0.0296,3.41552 0.0657,3.45168 0.0362,0.0362 1.58942,0.0657 3.45168,0.0657 l 3.38593,0 0,-3.45168 z"
         id="path4244"
         inkscape:connector-curvature="0" />
      <path
         style="fill:#878787"
         d="m 393.13926,254.36595 c -0.0329,-0.0858 -0.0599,-1.63018 -0.0599,-3.43196 0,-2.41647 -0.031,-3.307 -0.11834,-3.3943 -0.17327,-0.17326 -6.48225,-0.16863 -6.71632,0.005 -0.14935,0.11075 -0.16881,0.46419 -0.19144,3.47634 l -0.0252,3.35305 -3.30375,0 -3.30374,0 -0.0597,-7.74161 c -0.0328,-4.25789 -0.0661,-11.96326 -0.074,-17.12304 -0.0119,-7.80654 -0.0369,-9.40022 -0.14925,-9.49345 -0.0963,-0.0799 -1.07973,-0.10458 -3.42703,-0.086 l -3.29202,0.026 -0.0986,13.75739 -0.0986,13.7574 -3.28167,0.026 c -2.57595,0.0204 -3.29005,-7.9e-4 -3.32059,-0.0986 -0.0214,-0.0685 -0.0637,-4.68576 -0.094,-10.26049 -0.0368,-6.76898 -0.0894,-10.19998 -0.15838,-10.32883 -0.0691,-0.12917 -0.0856,-1.26114 -0.0497,-3.42428 0.0295,-1.77723 0.0861,-7.89109 0.12592,-13.58635 l 0.0723,-10.35503 3.42702,-0.0259 3.42702,-0.0259 0.002,-3.32712 c 0.001,-1.82992 0.0123,-6.45583 0.0247,-10.27979 l 0.0224,-6.95266 3.40237,0 3.40237,0 0,13.70808 0,13.70809 3.45167,0 3.45168,0 0.0493,-10.30572 0.0493,-10.30572 3.40237,0 3.40236,0 0.025,13.78205 0.025,13.78205 3.45133,0 3.45134,0 10e-4,-3.3284 c 6.9e-4,-1.83062 1e-4,-9.5747 -10e-4,-17.20907 -0.001,-7.63437 0.009,-13.8903 0.0233,-13.90208 0.0143,-0.0118 1.55705,-0.0451 3.42835,-0.074 l 3.40236,-0.0526 0.026,-3.34806 c 0.0196,-2.52783 0.0559,-3.36704 0.14793,-3.42552 0.15965,-0.10139 6.49509,-0.10101 6.65479,4.1e-4 0.0954,0.0606 0.12822,1.59789 0.14793,6.9265 l 0.0253,6.84864 3.40237,0 3.40236,0 0.0493,-3.40237 0.0493,-3.40236 3.40237,0 3.40237,0 0.0253,6.82939 0.0253,6.82938 -3.33489,0 c -2.51243,0 -3.37637,0.0304 -3.50312,0.12328 -0.15377,0.11267 -0.16599,0.41161 -0.14212,3.47633 l 0.0261,3.35306 3.42078,0.0259 c 3.26015,0.0247 3.42357,0.0347 3.48017,0.21303 0.0668,0.21038 -0.13225,27.0489 -0.2011,27.11774 -0.0242,0.0242 -4.61116,0.0475 -10.19314,0.0518 -5.58198,0.004 -10.17665,0.0353 -10.21039,0.0691 -0.0337,0.0337 -0.0707,1.5648 -0.0822,3.40236 l -0.0208,3.34102 -3.31206,0.0259 -3.31205,0.0259 -0.12064,10.18115 c -0.0663,5.59964 -0.14112,10.28101 -0.16615,10.40305 l -0.0455,0.22189 -3.34063,0 c -2.95524,0 -3.34753,-0.018 -3.40049,-0.15599 z m 6.91874,-30.78582 -0.0259,-3.42702 -3.47506,-0.0259 -3.47505,-0.0259 -0.0259,-3.42577 -0.0259,-3.42576 -3.40236,0 -3.40237,0 0,3.45168 0,3.45168 3.34806,0.026 c 2.52783,0.0196 3.36704,0.0559 3.42551,0.14793 0.0426,0.0671 0.0781,1.59753 0.079,3.40103 l 0.002,3.27909 3.50227,0 3.50226,0 -0.0259,-3.42702 z m 20.5362,-7.02663 0,-3.45168 -3.35306,0 -3.35306,0 0,3.45168 0,3.45168 3.35306,0 3.35306,0 0,-3.45168 z m 7.00197,-20.56085 0,-3.40365 3.40049,0 3.40048,0 0.0541,0.2219 c 0.0297,0.12204 0.0417,1.64201 0.0265,3.37771 l -0.0276,3.15582 -3.42702,0.0259 -3.42702,0.0259 0,-3.40364 z"
         id="path4242"
         inkscape:connector-curvature="0" />
      <path
         style="fill:#767676"
         d="m 393.13182,251.09492 c -0.0281,-1.88486 -0.0847,-5.00246 -0.12575,-6.92801 l -0.0746,-3.50098 -3.30374,0 -3.30375,0 -0.026,3.33827 c -0.0215,2.76396 -0.0512,3.37429 -0.17258,3.54759 -0.1226,0.17503 -0.14661,0.74673 -0.14661,3.49111 l 0,3.2818 -3.25444,0 -3.25443,0 -0.01,-2.14497 c -0.0139,-2.98132 -0.28913,-31.56495 -0.34428,-35.7495 l -0.0452,-3.42703 -3.25197,0 c -2.53382,0 -3.25279,0.0272 -3.25571,0.12328 -0.002,0.0678 -4e-4,1.57573 0.004,3.35096 0.006,2.72058 -0.0164,3.27374 -0.14418,3.52075 -0.13285,0.25691 -0.15155,1.33653 -0.15165,8.75456 -5e-5,4.65382 -0.0295,10.7581 -0.0654,13.56505 l -0.0653,5.10355 -3.23832,0 -3.23831,0 -0.0135,-2.49014 c -0.007,-1.36957 -0.0519,-5.99605 -0.0987,-10.28106 -0.0862,-7.88415 -0.0979,-35.06694 -0.0151,-35.15779 0.0247,-0.0271 1.58345,-0.0715 3.46386,-0.0986 l 3.41892,-0.0493 0.002,-10.15779 c 7.9e-4,-5.58679 0.0119,-10.21327 0.0247,-10.28107 0.0337,-0.17964 6.69267,-0.17964 6.75687,0 0.0242,0.0678 0.0212,6.25863 -0.007,13.7574 l -0.0509,13.63412 3.51556,0 3.51555,0 0.0251,-10.28106 0.0251,-10.28107 3.40237,0 3.40237,0 0.031,6.70611 c 0.017,3.68837 6e-4,9.86753 -0.0365,13.73147 l -0.0675,7.02534 -3.36583,0.0259 -3.36582,0.0259 0,3.45168 0,3.45168 3.37642,0.0259 3.37642,0.026 0.0259,3.37642 0.0259,3.37642 3.4653,0.0259 c 2.99756,0.0224 3.48252,0.0467 3.59293,0.1797 0.10448,0.1259 0.097,2.39333 -0.0412,12.49876 -0.0928,6.78972 -0.1675,12.91078 -0.16591,13.60235 l 0.003,1.25739 -3.35059,0 -3.35058,0 -0.0512,-3.42702 z m 20.61888,-24.34238 c -0.0329,-0.0858 -0.0599,-1.56361 -0.0599,-3.28403 0,-2.30142 0.0313,-3.1593 0.11835,-3.24637 0.16948,-0.16949 6.69441,-0.16949 6.8639,0 0.0871,0.0871 0.11834,0.94495 0.11834,3.24637 0,1.72042 -0.0269,3.19823 -0.0599,3.28403 -0.053,0.13811 -0.45317,0.15599 -3.49043,0.15599 -3.03726,0 -3.43744,-0.0179 -3.49044,-0.15599 z m -13.57071,-3.29313 0,-3.35312 -3.52564,-0.0259 -3.52564,-0.0259 -0.0259,-3.42576 -0.0259,-3.42576 3.47761,-0.0259 3.47761,-0.0259 0,-17.15976 0,-17.15976 3.40236,-0.0526 c 1.8713,-0.0289 3.41288,-0.0622 3.42573,-0.074 0.0129,-0.0118 0.035,-1.54137 0.0493,-3.39911 l 0.026,-3.37772 3.40236,0 3.40237,0 0.0253,6.84865 c 0.0197,5.32861 0.0525,6.86592 0.14793,6.9265 0.15971,0.10142 6.49514,0.1018 6.6548,3.9e-4 0.0922,-0.0585 0.1283,-0.90755 0.14793,-3.47482 l 0.026,-3.39736 3.40237,0 3.40237,0 0,6.80473 0,6.80473 -3.45168,0.0493 -3.45168,0.0493 -0.0259,3.47506 -0.0259,3.47505 3.42829,0.0259 3.42828,0.0259 0.0313,3.25443 c 0.0172,1.78994 7.9e-4,6.37205 -0.0365,10.18245 l -0.0679,6.92801 -3.29185,0 -3.29186,0 0,-3.39655 c 0,-2.15798 -0.036,-3.41877 -0.0986,-3.4575 -0.0627,-0.0387 -0.0986,-1.29951 -0.0986,-3.45749 l 0,-3.39655 -3.35306,0 -3.35306,0 0,3.39655 c 0,2.15798 -0.036,3.41877 -0.0986,3.45749 -0.0627,0.0387 -0.0986,1.29952 -0.0986,3.4575 l 0,3.39655 -3.34723,0 c -2.0489,0 -3.3701,0.037 -3.40618,0.0954 -0.0324,0.0524 -0.0683,1.59461 -0.0798,3.42702 l -0.0208,3.33166 -3.3284,0.026 -3.32841,0.026 0,-3.35312 z m 27.5148,-27.46935 0,-3.40368 3.3284,0.026 3.3284,0.026 0.026,3.37772 0.0259,3.37771 -3.35435,0 -3.35435,0 0,-3.40368 z"
         id="path4240"
         inkscape:connector-curvature="0" />
      <path
         style="fill:#656565"
         d="m 393.07096,244.09295 -0.13949,-10.33038 -3.30374,0 -3.30375,0 -0.0738,3.45168 c -0.0406,1.89842 -0.10719,5.00493 -0.14793,6.90335 l -0.0741,3.45168 -3.27909,0.026 -3.27909,0.026 -0.0141,-2.1463 c -0.11596,-17.65777 -0.19587,-26.49003 -0.2905,-32.10943 -0.0874,-5.18988 -0.0871,-6.81484 10e-4,-6.90335 0.0822,-0.0823 1.1201,-0.13004 3.58716,-0.16508 l 3.47152,-0.0493 0,-10.25641 0,-10.25641 3.40237,0 3.40237,0 0.0184,3.59961 c 0.0101,1.97978 -0.008,8.13732 -0.0409,13.68343 l -0.0592,10.08382 -3.23015,0 c -1.77659,0 -3.30035,0.0269 -3.38615,0.0599 -0.13817,0.053 -0.156,0.45753 -0.156,3.53975 0,3.08222 0.0178,3.48672 0.15599,3.53974 0.0858,0.0329 1.61687,0.0599 3.40237,0.0599 l 3.24637,0 0,3.35305 0,3.35306 3.42702,0.002 c 1.88487,7.9e-4 3.48513,0.0384 3.55614,0.0834 0.1062,0.0674 0.11059,2.33819 0.0248,12.79435 -0.0574,6.99186 -0.10441,13.12297 -0.10446,13.62469 l -1e-4,0.91223 -3.33684,0 -3.33684,0 -0.1395,-10.33037 z M 365.59794,231.0752 c -0.0557,-5.24778 -0.0971,-14.48965 -0.0919,-20.53748 l 0.009,-10.99605 3.45167,-0.0525 c 1.89843,-0.0289 3.46257,-0.0622 3.47588,-0.074 0.0133,-0.0118 0.0355,-4.64792 0.0493,-10.30251 l 0.0251,-10.28106 3.30375,0 3.30375,0 0.031,6.80473 c 0.017,3.7426 6e-4,9.87796 -0.0365,13.63412 l -0.0675,6.82939 -3.24256,0 c -2.53008,0 -3.24181,0.0271 -3.23919,0.12328 0.039,1.43304 -0.14812,13.68244 -0.21081,13.80022 -0.0489,0.0918 -0.0884,2.45233 -0.0885,5.27613 -6e-5,2.81052 -0.0295,7.40663 -0.0654,10.21359 l -0.0653,5.10355 -3.22033,0 -3.22034,0 -0.10125,-9.54142 z m 27.53037,-11.19083 c -0.0301,-0.1234 -0.0423,-1.66667 -0.0272,-3.42949 l 0.0276,-3.20513 3.49136,-0.0259 3.49136,-0.0259 -0.0397,-17.18314 -0.0397,-17.18314 3.40236,-0.0493 3.40237,-0.0493 0.0493,-3.40237 0.0493,-3.40237 3.40236,0 3.40237,0 0.02,6.83131 c 0.011,3.75722 0.0469,6.87483 0.0798,6.92801 0.0838,0.13552 6.72148,0.13086 6.80531,-0.005 0.0345,-0.0558 0.0577,-1.55688 0.0516,-3.33571 -0.006,-1.77883 0.0174,-3.30861 0.0523,-3.39951 0.0576,-0.15012 0.36942,-0.16528 3.39929,-0.16528 3.30798,0 3.33641,0.002 3.40195,0.20824 0.0364,0.11453 0.0333,3.19828 -0.007,6.85279 l -0.073,6.64456 -3.46281,0.0259 -3.46281,0.0259 -0.026,3.37772 -0.0259,3.37771 -3.29998,0 -3.29998,0 -0.0517,3.42702 c -0.0284,1.88486 -0.0751,4.96918 -0.10361,6.85404 l -0.0519,3.42702 -3.34473,0 c -2.13814,0 -3.36687,0.0358 -3.40609,0.0993 -0.0337,0.0546 -0.0696,1.59676 -0.0798,3.42702 l -0.0184,3.32775 -3.40237,0.0747 c -1.8713,0.0411 -4.9434,0.0977 -6.82689,0.12575 l -3.42452,0.0511 -0.0547,-0.22437 z m 27.61572,-10.30819 c -0.0288,-1.88486 -0.0632,-4.89152 -0.0765,-6.68146 l -0.0241,-3.25443 3.3468,-0.026 c 1.96705,-0.0153 3.38456,0.0118 3.4384,0.0656 0.0561,0.056 0.0631,2.66006 0.0182,6.70745 l -0.0734,6.61583 -3.28849,0 -3.28848,0 -0.0524,-3.42702 z m 7.01781,-10.24688 c -0.0369,-0.0369 -0.067,-1.54634 -0.067,-3.35437 l 0,-3.28731 3.35437,0 3.35436,0 -0.026,3.32841 -0.026,3.3284 -3.26135,0.026 c -1.79374,0.0143 -3.29152,-0.004 -3.3284,-0.0411 z"
         id="path4236"
         inkscape:connector-curvature="0" />
      <path
         style="fill:#545454"
         d="m 393.27664,251.13429 c 0,-1.80897 -0.0407,-3.41769 -0.0904,-3.57495 -0.0507,-0.16043 -0.11562,-4.71179 -0.14783,-10.36974 l -0.0574,-10.08383 3.51635,0 3.51635,0 -0.0649,9.14694 c -0.0357,5.03082 -0.0939,11.17727 -0.12932,13.65878 l -0.0644,4.51183 -3.23921,0 -3.23921,0 0,-3.28903 z m -13.8422,-17.39637 c -0.0326,-3.83753 -0.11109,-11.4881 -0.17442,-17.00127 -0.0633,-5.51317 -0.088,-10.0947 -0.0548,-10.18118 0.0534,-0.13909 0.46176,-0.16022 3.54025,-0.18315 l 3.47991,-0.0259 0.0251,-10.33037 0.0251,-10.33038 3.35322,0 3.35322,0 -0.0253,13.68343 -0.0253,13.68343 -3.29527,0.026 c -2.23117,0.0176 -3.33781,0.0613 -3.42702,0.13535 -0.18187,0.15094 -0.19464,6.78759 -0.0134,6.96882 0.0873,0.0873 0.97962,0.11835 3.40237,0.11835 l 3.28402,0 0,3.30374 0,3.30375 -3.30374,0 c -1.81706,0 -3.30434,0.0333 -3.30507,0.074 -6.9e-4,0.0407 -0.0224,1.58284 -0.0482,3.42703 -0.0257,1.84418 -0.0707,4.9174 -0.0998,6.82938 l -0.053,3.47634 -3.28938,0 -3.28938,0 -0.0593,-6.97732 z m -13.80429,-5.02959 c -0.0359,-2.80695 -0.0654,-10.52884 -0.0654,-17.15976 l -1e-4,-12.05621 3.4498,0 3.4498,0 0.0662,0.26365 c 0.0364,0.14502 -0.0384,7.86691 -0.16616,17.15977 l -0.23232,16.8961 -3.21821,0 -3.21821,0 -0.0653,-5.10355 z m 27.54787,-12.05621 0,-3.35306 3.44113,0 c 3.04688,0 3.44798,0.0179 3.50098,0.156 0.0781,0.20362 0.0781,6.19049 0,6.39412 -0.053,0.13813 -0.4541,0.156 -3.50098,0.156 l -3.44113,0 0,-3.35306 z m 6.96821,-8.99772 c -0.0361,-2.99751 -0.0658,-10.71998 -0.066,-17.16106 l -4e-4,-11.71104 3.40316,0 c 1.87173,0 3.41278,-0.0111 3.42456,-0.0247 0.0118,-0.0136 0.0451,-1.55572 0.074,-3.42702 l 0.0526,-3.40237 3.30374,0 3.30375,0 0.0253,6.84476 c 0.018,4.85669 0.0573,6.88326 0.13535,6.97732 0.16127,0.19432 6.71596,0.19505 6.87721,7.9e-4 0.0743,-0.0895 0.11771,-1.22152 0.13534,-3.52564 l 0.026,-3.39387 3.30375,0 3.30375,0 0,6.80473 0,6.80473 -6.75543,0 -6.75542,0 -0.0239,3.30375 c -0.0149,2.06069 -0.0627,3.37821 -0.12711,3.50166 -0.0647,0.12402 -0.11097,1.44947 -0.12402,3.5503 l -0.0208,3.35238 -3.40236,0.0526 c -1.87131,0.0289 -3.40237,0.0622 -3.40237,0.0739 0,0.0118 0,1.54135 0,3.39912 l 0,3.37776 -3.31246,0.0259 -3.31245,0.0259 -0.0657,-5.45001 z m 20.71095,-1.52168 c -0.0362,-0.0362 -0.0658,-1.50065 -0.0658,-3.25443 l 0,-3.18869 3.30375,0 3.30375,0 0,3.25443 0,3.25444 -3.238,0 c -1.7809,0 -3.26759,-0.0296 -3.30375,-0.0657 z M 372.5334,194.10138 c -0.036,-2.85656 -0.0654,-7.44976 -0.0654,-10.2071 l 0,-5.01336 3.35306,0 3.35306,0 0,5.01336 c 0,2.75734 -0.0294,7.35054 -0.0654,10.2071 l -0.0654,5.19374 -3.22218,0 -3.22218,0 -0.0654,-5.19374 z m 55.18471,1.91596 0.026,-3.28041 3.30374,0 3.30375,0 0,3.25444 0,3.25444 -3.32973,0.026 -3.32973,0.026 0.026,-3.28041 z"
         id="path4234"
         inkscape:connector-curvature="0" />
      <path
         style="fill:#434343"
         d="m 393.23804,247.46301 c -0.0328,-0.0856 -0.0893,-4.70153 -0.12545,-10.2577 l -0.0658,-10.10213 3.4433,0.0259 3.44331,0.0259 0,3.35306 c 0,1.84418 -0.0386,6.44847 -0.0858,10.23175 l -0.0859,6.8787 -3.232,0 c -2.85251,0 -3.23901,-0.0183 -3.2917,-0.15558 z M 379.3879,224.71425 c -0.066,-5.0037 -0.11897,-11.17234 -0.11764,-13.70809 l 0.002,-4.61045 3.52564,1e-5 3.52564,10e-6 0,-10.33039 0,-10.33038 3.30375,0 3.30374,0 0.0278,7.05128 c 0.0153,3.87821 -0.002,10.01356 -0.0377,13.63412 l -0.0655,6.58284 -3.22251,0 c -2.42932,0 -3.26417,0.0305 -3.39178,0.12378 -0.15626,0.11426 -0.1652,0.39663 -0.11633,3.67357 0.0673,4.51407 0.0673,9.11775 6e-5,13.535 l -0.053,3.47633 -3.28225,0 -3.28226,0 -0.12007,-9.09763 z m -13.75829,-3.20513 c -0.0361,-2.96967 -0.0657,-9.13831 -0.0659,-13.70808 l -3e-4,-8.30868 3.40603,0 c 3.06085,0 3.41229,0.0163 3.46786,0.16115 0.034,0.0886 -0.0202,6.25728 -0.12056,13.70809 l -0.18238,13.54693 -3.2196,0 -3.2196,0 -0.0656,-5.39941 z m 27.54841,-4.857 0,-3.35561 3.42702,0.0259 3.42703,0.0259 0,3.30375 0,3.30375 -3.42703,0.0259 -3.42702,0.0259 0,-3.35561 z m 6.96291,-17.0845 c -0.0361,-3.6484 -0.0531,-9.80653 -0.0379,-13.68473 l 0.0276,-7.05128 3.40237,-0.0493 3.40237,-0.0493 0.0493,-3.40237 0.0493,-3.40237 3.30374,0 3.30375,0 0.0253,6.8991 c 0.0162,4.40152 0.0608,6.93456 0.12328,6.99704 0.13595,0.13596 0.13174,6.31995 -0.004,6.57448 -0.0638,0.11912 -0.1103,1.44794 -0.12327,3.51916 l -0.0209,3.32778 -3.34455,0.026 c -3.35877,0.0261 -3.75877,0.0681 -3.50932,0.3687 0.0658,0.0793 0.0921,1.23837 0.0752,3.31531 l -0.026,3.19336 -3.31516,0.0259 -3.31515,0.026 -0.0656,-6.63344 z m 27.65248,-3.52559 0,-3.25579 3.25578,0 3.25579,0 -0.026,3.22979 -0.026,3.22978 -3.22978,0.026 -3.22978,0.026 0,-3.25578 z M 372.5199,185.74269 c -0.0402,-3.65698 -0.0436,-6.69693 -0.007,-6.75542 0.0919,-0.14865 6.52518,-0.14865 6.61705,0 0.0362,0.0585 0.0328,3.09844 -0.007,6.75542 l -0.0731,6.64907 -3.22797,0 -3.22797,0 -0.0731,-6.64907 z m 48.14131,6.5846 c -0.1106,-0.1106 -0.0799,-6.42481 0.0316,-6.49371 0.0627,-0.0388 0.0986,-1.31595 0.0986,-3.50681 l 0,-3.44585 3.35272,0 3.35271,0 -0.0243,6.73077 -0.0243,6.73077 -3.36,0.0259 c -1.848,0.0143 -3.39016,-0.004 -3.42703,-0.0411 z"
         id="path4232"
         inkscape:connector-curvature="0" />
      <path
         style="fill:#323232"
         d="m 393.24137,240.54265 c -0.0267,-0.0949 -0.0792,-3.11797 -0.11667,-6.7179 -0.057,-5.47915 -0.0462,-6.55921 0.0666,-6.63064 0.20677,-0.13099 6.56784,-0.11224 6.64932,0.0196 0.0367,0.0594 0.0337,3.1215 -0.007,6.80473 l -0.0733,6.69679 -3.23538,0 c -2.99707,0 -3.23895,-0.0127 -3.28394,-0.17259 z m -13.868,-23.73242 c -0.0713,-5.55407 -0.10206,-10.17003 -0.0684,-10.2577 0.055,-0.14323 0.40861,-0.15675 3.49078,-0.13345 l 3.42963,0.0259 0.026,3.29202 c 0.017,2.14671 -0.009,3.3345 -0.0753,3.41412 -0.0672,0.081 -0.10136,2.41795 -0.1014,6.93974 l -6e-5,6.81763 -3.28581,0 -3.28581,0 -0.12958,-10.0983 z m -13.74743,-3.4372 c -0.0351,-3.64769 -0.0521,-8.25198 -0.0379,-10.23176 l 0.0259,-3.5996 3.33099,-0.026 c 2.99167,-0.0233 3.33723,-0.01 3.39217,0.13345 0.0336,0.0877 0.003,4.70366 -0.0684,10.25772 l -0.12958,10.09831 -3.2247,0 -3.2247,0 -0.0637,-6.63215 z m 27.5974,6.50939 c -0.0265,-0.069 -0.0364,-1.56734 -0.0221,-3.32972 l 0.026,-3.20433 3.35306,0 3.35306,0 0,3.30375 0,3.30375 -3.331,0.026 c -2.62285,0.0204 -3.34122,-6.9e-4 -3.37911,-0.0994 z m -6.85005,-16.9877 0,-3.30374 3.25444,0 3.25443,0 0,3.30374 0,3.30375 -3.25443,0 -3.25444,0 0,-3.30375 z m -0.037,-3.63505 c -0.0321,-0.12799 -0.0586,-3.2123 -0.0587,-6.85405 l -3.2e-4,-6.62135 3.3505,0 3.35049,0 -2.9e-4,6.62135 c -2e-4,3.64175 -0.0266,6.72606 -0.0587,6.85405 l -0.0584,0.23269 -3.23305,0 -3.23306,0 -0.0584,-0.23269 z m 13.84372,-3.2683 0,-3.30637 3.32841,0.026 3.3284,0.026 0,3.25444 0,3.25444 -3.3284,0.026 -3.32841,0.026 0,-3.30637 z m -0.0364,-3.63251 c -0.0325,-0.12938 -0.0592,-3.21427 -0.0594,-6.85531 l -2.9e-4,-6.62008 3.42574,-0.0259 3.42572,-0.0259 0.0259,-3.42702 0.0259,-3.42703 3.35042,0 3.35041,0 -0.0233,10.18245 -0.0233,10.18245 -3.45167,0.0745 c -1.89843,0.041 -4.92217,0.0976 -6.71944,0.12582 l -3.26777,0.0513 -0.059,-0.23523 z m 20.69438,-0.0904 c -0.0252,-0.0678 -0.0349,-3.09665 -0.0216,-6.73077 l 0.0243,-6.60749 3.24814,-0.026 c 1.89225,-0.0152 3.28614,0.012 3.33919,0.065 0.0553,0.0553 0.0623,2.70769 0.0177,6.75679 l -0.0733,6.66574 -3.2443,0 c -2.50523,0 -3.25475,-0.0281 -3.29017,-0.12327 z m -48.27141,-10.03452 0,-3.25443 3.25444,0 3.25444,0 0,3.25443 0,3.25444 -3.25444,0 -3.25444,0 0,-3.25444 z"
         id="path4230"
         inkscape:connector-curvature="0" />
      <path
         style="fill:#212121"
         d="m 393.23788,233.65589 c -0.0329,-0.0858 -0.0599,-1.57249 -0.0599,-3.30375 l 0,-3.14775 3.30375,0 3.30375,0 0,3.30375 0,3.30374 -3.24389,0 c -2.86702,0 -3.25084,-0.0181 -3.30375,-0.15599 z m -13.76794,-15.36033 c 0,-0.94029 -0.0294,-3.98023 -0.0654,-6.75543 l -0.0654,-5.0458 3.41848,0 3.41849,0 0,3.29793 c 0,2.09223 -0.036,3.32021 -0.0986,3.35887 -0.0627,0.0387 -0.0986,1.29952 -0.0986,3.4575 l 0,3.39655 -3.25444,0 -3.25443,0 0,-1.70962 z m 13.75341,1.58687 c -0.0265,-0.069 -0.0364,-1.56735 -0.0221,-3.32973 l 0.026,-3.20433 3.30375,0 3.30375,0 0,3.30375 0,3.30375 -3.28168,0.026 c -2.58322,0.0205 -3.29192,-6.9e-4 -3.3298,-0.0994 z m -27.6068,-13.42968 c -0.0402,-3.65699 -0.0436,-6.69693 -0.007,-6.75542 0.0449,-0.0726 1.11612,-0.10635 3.37978,-0.10635 l 3.31404,0 -0.0654,5.0458 c -0.036,2.77519 -0.0654,5.81513 -0.0654,6.75542 l 0,1.70962 -3.2412,0 -3.24121,0 -0.0731,-6.64907 z m 20.75674,-10.46138 0,-3.30375 3.25444,0 3.25443,0 0,3.30375 0,3.30375 -3.25443,0 -3.25444,0 0,-3.30375 z m -0.0504,-3.72288 c -0.0298,-0.12204 -0.0417,-1.61982 -0.0265,-3.3284 l 0.0276,-3.10651 3.30375,0 3.30374,0 0.0276,3.10651 c 0.0152,1.70858 0.003,3.20636 -0.0265,3.3284 l -0.0541,0.22189 -3.25068,0 -3.25068,0 -0.0541,-0.22189 z m 13.85706,-3.18047 0,-3.30637 3.32841,0.026 3.3284,0.026 0,3.25444 0,3.25444 -3.3284,0.026 -3.32841,0.026 0,-3.30637 z m -0.0503,-3.72288 c -0.0298,-0.12204 -0.0417,-1.61982 -0.0265,-3.3284 l 0.0276,-3.10651 6.73077,-0.0253 6.73077,-0.0253 0,3.28831 0,3.28831 -5.0458,0.0654 c -2.7752,0.036 -5.7921,0.0654 -6.70424,0.0654 -1.63807,0 -1.65909,-0.003 -1.71254,-0.22189 z m 20.76041,-3.13117 0,-3.25443 3.25444,0 3.25444,0 0,3.25443 0,3.25444 -3.25444,0 -3.25444,0 0,-3.25444 z m -13.85541,-3.77219 c -0.0317,-0.17628 -0.0448,-1.69625 -0.0291,-3.37771 l 0.0285,-3.0572 3.30374,0 3.30375,0 0.0285,3.0572 c 0.0157,1.68146 0.003,3.20143 -0.0291,3.37771 l -0.0577,0.32052 -3.2455,0 -3.2455,0 -0.0576,-0.32052 z"
         id="path4228"
         inkscape:connector-curvature="0" />
      <path
         style="fill:#101010"
         d="m 393.27664,216.65212 0,-3.25444 3.25444,0 3.25444,0 0,3.25444 0,3.25444 -3.25444,0 -3.25444,0 0,-3.25444 z m -13.8067,-6.85271 0,-3.30508 3.30507,0 3.30508,0 -0.026,3.27909 -0.026,3.27909 -3.27909,0.026 -3.27909,0.026 0,-3.30507 z m -13.80671,-6.90469 0,-3.30374 3.25444,0 3.25443,0 0,3.30374 0,3.30375 -3.25443,0 -3.25444,0 0,-3.30375 z m 20.71006,-13.75739 0,-3.25444 3.25444,0 3.25443,0 0,3.25444 0,3.25443 -3.25443,0 -3.25444,0 0,-3.25443 z m 13.8067,-6.90204 0,-3.25575 3.35441,0 3.3544,0 -0.026,3.22978 -0.026,3.22978 -3.3284,0.026 -3.32841,0.026 0,-3.25575 z m 6.90336,-6.90467 0,-3.25444 3.25443,0 3.25444,0 0,3.25444 0,3.25444 -3.25444,0 -3.25443,0 0,-3.25444 z"
         id="path4226"
         inkscape:connector-curvature="0" />
      <rect
         style="opacity:1;fill:#dd3c3c;fill-opacity:1;stroke:none;stroke-width:0.40953973;stroke-miterlimit:4;stroke-dasharray:none;stroke-dashoffset:0;stroke-opacity:1"
         id="rect4266"
         width="6.8792562"
         height="6.7596173"
         x="413.73401"
         y="220.0858"
         ry="0" />
    </g>
    <text
       xml:space="preserve"
       style="font-style:normal;font-variant:normal;font-weight:300;font-stretch:normal;font-size:90px;line-height:125%;font-family:'Hiragino Kaku Gothic Pro';-inkscape-font-specification:'Hiragino Kaku Gothic Pro, Light';text-align:start;letter-spacing:0px;word-spacing:0px;writing-mode:lr-tb;text-anchor:start;fill:url(#linearGradient4264);fill-opacity:1;stroke:none;stroke-width:1px;stroke-linecap:butt;stroke-linejoin:miter;stroke-opacity:1"
       x="376.26355"
       y="244.84961"
       id="text4254"
       sodipodi:linespacing="125%"><tspan
         sodipodi:role="line"
         id="tspan4256"
         x="376.26355"
         y="244.84961"
         style="fill:url(#linearGradient4264);fill-opacity:1">J</tspan></text>
  </g>
</svg>
