<?xml version="1.0" encoding="UTF-8" standalone="no"?>
<!-- Created with Inkscape (http://www.inkscape.org/) -->

<svg
   xmlns:dc="http://purl.org/dc/elements/1.1/"
   xmlns:cc="http://creativecommons.org/ns#"
   xmlns:rdf="http://www.w3.org/1999/02/22-rdf-syntax-ns#"
   xmlns:svg="http://www.w3.org/2000/svg"
   xmlns="http://www.w3.org/2000/svg"
   xmlns:sodipodi="http://sodipodi.sourceforge.net/DTD/sodipodi-0.dtd"
   xmlns:inkscape="http://www.inkscape.org/namespaces/inkscape"
   width="109.22mm"
   height="47.121403mm"
   viewBox="0 0 387 166.9656"
   id="svg5633"
   version="1.1"
   inkscape:version="0.91 r13725"
   sodipodi:docname="signsvg.svg">
  <defs
     id="defs5635" />
  <sodipodi:namedview
     id="base"
     pagecolor="#ffffff"
     bordercolor="#666666"
     borderopacity="1.0"
     inkscape:pageopacity="0.0"
     inkscape:pageshadow="2"
     inkscape:zoom="0.35"
     inkscape:cx="221.35714"
     inkscape:cy="29.179898"
     inkscape:document-units="px"
     inkscape:current-layer="layer1"
     showgrid="false"
     fit-margin-top="0"
     fit-margin-left="0"
     fit-margin-right="0"
     fit-margin-bottom="0"
     inkscape:window-width="1280"
     inkscape:window-height="751"
     inkscape:window-x="0"
     inkscape:window-y="1"
     inkscape:window-maximized="1" />
  <metadata
     id="metadata5638">
    <rdf:RDF>
      <cc:Work
         rdf:about="">
        <dc:format>image/svg+xml</dc:format>
        <dc:type
           rdf:resource="http://purl.org/dc/dcmitype/StillImage" />
        <dc:title></dc:title>
      </cc:Work>
    </rdf:RDF>
  </metadata>
  <g
     inkscape:label="Layer 1"
     inkscape:groupmode="layer"
     id="layer1"
     transform="translate(-163.64286,-394.5765)">
    <path
       style="fill:#E54623"
       d="m 315.14286,560.51163 c -5.05656,-1.50512 -9.82332,-4.27857 -13.23975,-7.70332 -1.79314,-1.79751 -3.26025,-3.56207 -3.26025,-3.92126 0,-0.35919 -0.61456,-1.3635 -1.36569,-2.23181 -0.75113,-0.86831 -1.6597,-2.81624 -2.01905,-4.32874 -0.56904,-2.3951 -0.35515,-2.75 1.65735,-2.75 1.27089,0 3.91029,1.4625 5.86532,3.25 5.04866,4.61602 7.77124,6.74905 8.6235,6.75616 0.40621,0.003 2.08857,0.77106 3.73857,1.70594 2.46821,1.39847 5.71699,1.69585 18.32741,1.6776 9.40864,-0.0136 15.58714,-0.42067 16,-1.05412 0.36993,-0.56757 2.47259,-1.32063 4.67259,-1.67348 3.99803,-0.64122 12.34253,-3.82116 18,-6.85948 4.31795,-2.31894 10.12764,-8.4407 11.51166,-12.13003 0.6546,-1.74492 1.65121,-4.14848 2.2147,-5.34123 1.77319,-3.75339 -1.77519,-17.39108 -6.25019,-24.02178 -1.63689,-2.42541 -2.97617,-4.83728 -2.97617,-5.35971 0,-0.52243 -0.47341,-0.94987 -1.05202,-0.94987 -0.57861,0 -1.51005,-1.31392 -2.06988,-2.91982 -0.55982,-1.60591 -1.66141,-3.16679 -2.44798,-3.46862 -0.78656,-0.30184 -1.43012,-0.9974 -1.43012,-1.5457 0,-0.5483 -1.2375,-2.33774 -2.75,-3.97654 -2.92181,-3.16578 -3.11473,-3.40472 -7.71449,-9.55471 -1.63047,-2.17998 -3.65547,-4.66939 -4.5,-5.53203 -0.84453,-0.86264 -2.88551,-3.29186 -4.53551,-5.39827 -1.65,-2.1064 -4.02492,-5.01658 -5.2776,-6.46707 -1.25269,-1.45048 -4.33949,-6.13588 -6.85956,-10.412 l -4.58195,-7.77476 -3.64044,0.65515 c -2.00225,0.36033 -4.1017,1.01754 -4.66545,1.46047 -0.56375,0.44293 -3.38635,1.11856 -6.27244,1.50142 -2.8861,0.38285 -5.47174,1.05901 -5.74588,1.50257 -0.27414,0.44357 -3.86404,1.37201 -7.97756,2.0632 -4.11351,0.69119 -7.47912,1.57673 -7.47912,1.96787 0,0.39114 -2.2495,1.02055 -4.99888,1.39869 -2.74939,0.37813 -5.23488,1.06936 -5.52331,1.53606 -0.28844,0.46669 -2.54447,1.15146 -5.01342,1.5217 -2.46894,0.37024 -4.71081,1.03208 -4.98193,1.47076 -0.27112,0.43868 -2.40308,1.11264 -4.7377,1.49768 -2.33462,0.38505 -4.69476,1.05043 -5.24476,1.47863 -0.55,0.42821 -3.7,1.3261 -7,1.99532 -3.3,0.66922 -6.45,1.57772 -7,2.01889 -0.55,0.44118 -2.69247,1.11842 -4.76105,1.50499 -2.06857,0.38656 -3.99156,1.07583 -4.2733,1.5317 -0.28175,0.45588 -2.52678,1.13096 -4.98896,1.50019 -2.46218,0.36922 -4.47669,1.01927 -4.47669,1.44454 0,0.42528 -2.925,1.32514 -6.5,1.99969 -3.575,0.67455 -6.5,1.59793 -6.5,2.05196 0,0.45402 -2.025,1.12916 -4.5,1.50031 -2.475,0.37115 -4.5,1.03417 -4.5,1.47338 0,0.4392 -1.8,1.10266 -4,1.47435 -2.2,0.37169 -4.00171,0.97374 -4.00379,1.3379 -0.002,0.36415 -3.60038,2.0121 -7.99621,3.6621 -4.39583,1.65 -7.99412,3.3375 -7.99621,3.75 -0.002,0.4125 -0.517,0.75 -1.14426,0.75 -0.62726,0 -3.10226,0.97976 -5.5,2.17726 -3.09311,1.54477 -4.35953,2.7939 -4.35953,4.29999 0,1.16751 -0.54,2.66275 -1.2,3.32275 -1.44893,1.44893 -6.71113,1.56449 -10.2349,0.22475 -2.26013,-0.8593 -2.5651,-1.54406 -2.5651,-5.75945 0,-3.73596 0.44798,-5.06397 2.04456,-6.06106 5.40046,-3.37264 13.12739,-7.17547 16.83967,-8.2877 2.26368,-0.67821 4.11577,-1.59149 4.11577,-2.02952 0,-0.43801 1.575,-1.09187 3.5,-1.453 1.925,-0.36113 3.5,-1.02077 3.5,-1.46586 0,-0.44509 1.4607,-1.13007 3.24599,-1.52219 2.90819,-0.63874 7.5474,-2.38147 11.75401,-4.4154 0.825,-0.3989 3.975,-1.3286 7,-2.06601 3.025,-0.73741 5.95,-1.65414 6.5,-2.03718 0.55,-0.38304 2.56023,-1.03062 4.46718,-1.43906 1.90694,-0.40845 4.15694,-1.10905 5,-1.55689 2.29503,-1.21917 15.00126,-4.90011 19.28282,-5.58617 2.0625,-0.33048 3.75,-0.95114 3.75,-1.37923 0,-0.4281 2.25,-1.08781 5,-1.46603 2.75,-0.37822 5,-1.06788 5,-1.53257 0,-0.46468 2.03053,-1.14938 4.5123,-1.52155 2.48176,-0.37216 4.75025,-1.06169 5.0411,-1.53228 0.29084,-0.47059 2.7603,-1.15164 5.4877,-1.51344 2.72739,-0.3618 4.9589,-0.98619 4.9589,-1.38753 0,-0.40134 3.3893,-1.30947 7.53177,-2.01806 4.14247,-0.7086 7.75296,-1.64625 8.02331,-2.08369 0.27034,-0.43743 2.61855,-1.10309 5.21823,-1.47925 2.59968,-0.37615 5.17669,-1.02628 5.72669,-1.44471 0.55,-0.41844 2.83544,-1.0632 5.07875,-1.43282 6.82756,-1.12494 11.89801,-3.24621 12.2791,-5.1371 0.87777,-4.35526 5.92321,-5.8301 9.34647,-2.73209 1.62154,1.46747 2.59958,1.53945 7.57875,0.55771 13.65195,-2.69174 17.74748,-3.65714 18.21693,-4.29408 0.48485,-0.65784 2.86712,-1.12452 23,-4.50568 5.225,-0.8775 10.21505,-1.96969 11.089,-2.42709 0.87395,-0.45739 4.24895,-1.15359 7.5,-1.54709 3.25105,-0.39351 6.361,-1.05528 6.911,-1.47062 0.55,-0.41533 4.15,-1.0806 8,-1.47837 3.85,-0.39778 7.45,-1.01494 8,-1.37146 1.18299,-0.76685 12.81074,-2.59428 31.5,-4.95058 7.425,-0.93613 13.97662,-2.01204 14.55916,-2.39092 0.58254,-0.37888 5.75754,-0.99986 11.5,-1.37995 5.74246,-0.38009 10.89084,-1.03783 11.44084,-1.46164 1.0764,-0.82944 34.4121,-2.96514 46.28224,-2.96514 5.50274,0 7.21776,0.33099 7.21776,1.39301 0,1.86241 -1.94659,2.53928 -12,4.17263 -4.675,0.75954 -12.325,2.10047 -17,2.97986 -4.675,0.87939 -13.45,2.22146 -19.5,2.98238 -31.88048,4.00968 -54.79845,7.50917 -55.5,8.47465 -0.275,0.37845 -4.1,1.18495 -8.5,1.79221 -14.24083,1.96543 -21.9569,3.31844 -24,4.20837 -1.1,0.47914 -6.05,1.41944 -11,2.08956 -4.95,0.67012 -9.45,1.55504 -10,1.96649 -0.55,0.41145 -3.7,1.07265 -7,1.46933 -3.3,0.39669 -6.45,1.00256 -7,1.34638 -0.55,0.34382 -3.475,1.16368 -6.5,1.82192 -3.025,0.65823 -8.425,1.885 -12,2.72616 -3.575,0.84116 -8.975,2.07653 -12,2.74527 -3.025,0.66874 -5.66176,1.32872 -5.85946,1.46662 -0.1977,0.13791 1.0398,2.32404 2.75,4.85808 1.7102,2.53404 3.10946,5.03478 3.10946,5.55721 0,0.52243 0.34697,0.94987 0.77105,0.94987 0.42408,0 3.67711,3.825 7.22895,8.5 3.55184,4.675 6.80487,8.5 7.22895,8.5 0.42408,0 0.77105,0.44486 0.77105,0.98857 0,1.04292 1.4364,2.9665 6.75,9.03941 1.7875,2.04293 3.25,4.22238 3.25,4.84322 0,0.62084 0.4133,1.1288 0.91844,1.1288 0.50514,0 1.89922,1.58693 3.09795,3.52652 1.19873,1.93959 2.71478,4.07709 3.36899,4.75 3.68406,3.78937 10.2718,16.83253 11.68015,23.12568 1.88491,8.42266 0.82357,21.15792 -2.21662,26.5978 -3.02622,5.41487 -13.80051,14.84032 -17.90169,15.66056 -1.62097,0.32419 -2.94722,0.97787 -2.94722,1.45262 0,0.47475 -1.8,1.15102 -4,1.50281 -2.2,0.35179 -4,0.96616 -4,1.36527 0,2.50815 -40.09671,4.1575 -47.5,1.95387 z"
       id="path6192"
       inkscape:connector-curvature="0" />
  </g>
</svg>
