<?xml version="1.0" encoding="UTF-8" standalone="no"?>
<svg
   xmlns:dc="http://purl.org/dc/elements/1.1/"
   xmlns:cc="http://creativecommons.org/ns#"
   xmlns:rdf="http://www.w3.org/1999/02/22-rdf-syntax-ns#"
   xmlns:svg="http://www.w3.org/2000/svg"
   xmlns="http://www.w3.org/2000/svg"
   version="1.1"
   id="svg4157"
   viewBox="0 0 1300 700.00001"
   height="700"
   width="1300">
  <defs
     id="defs4159" />
  <metadata
     id="metadata4162">
    <rdf:RDF>
      <cc:Work
         rdf:about="">
        <dc:format>image/svg+xml</dc:format>
        <dc:type
           rdf:resource="http://purl.org/dc/dcmitype/StillImage" />
        <dc:title></dc:title>
      </cc:Work>
    </rdf:RDF>
  </metadata>
  <g
     style="opacity:0.51"
     transform="translate(0,-352.36215)"
     id="layer1">
    <path
       id="rect8400"
       transform="translate(0,352.36215)"
       d="M 0 1.7324219 L 0 701.73242 L 1300 701.73242 L 1300 1.7324219 L 0 1.7324219 z M 688.03516 84.046875 L 783.03516 84.046875 C 779.28516 109.67188 778.03516 125.92188 778.03516 164.67188 L 778.03516 444.67188 C 778.03516 488.42188 766.16016 523.42188 744.28516 547.17188 C 717.41016 575.92188 675.53516 590.92188 623.03516 590.92188 C 566.78516 590.92188 526.16016 575.92188 496.16016 544.04688 C 481.78516 528.42188 474.28516 515.29688 460.53516 484.67188 L 543.03516 454.67188 C 552.41016 483.42188 561.16016 495.92188 576.78516 505.92188 C 588.03516 513.42188 606.78516 517.79688 623.66016 517.79688 C 646.16016 517.79688 666.78516 510.29688 678.03516 497.79688 C 688.03516 486.54688 693.03516 468.42188 693.03516 443.42188 L 693.03516 164.67188 C 693.03516 127.17188 691.78516 109.04688 688.03516 84.046875 z "
       style="opacity:0.50400002;fill:#ffffff;fill-opacity:1;stroke:none;stroke-width:2;stroke-miterlimit:4;stroke-dasharray:none;stroke-opacity:1" />
    <rect
       y="353.36215"
       x="1"
       height="700"
       width="1300"
       id="rect4705"
       style="opacity:1;fill:none;fill-opacity:1;stroke:#000000;stroke-width:2;stroke-miterlimit:4;stroke-dasharray:none;stroke-opacity:1" />
  </g>
</svg>
