<?xml version="1.0" encoding="UTF-8" standalone="no"?>
<!-- Created with Inkscape (http://www.inkscape.org/) -->

<svg
   xmlns:dc="http://purl.org/dc/elements/1.1/"
   xmlns:cc="http://creativecommons.org/ns#"
   xmlns:rdf="http://www.w3.org/1999/02/22-rdf-syntax-ns#"
   xmlns:svg="http://www.w3.org/2000/svg"
   xmlns="http://www.w3.org/2000/svg"
   xmlns:sodipodi="http://sodipodi.sourceforge.net/DTD/sodipodi-0.dtd"
   xmlns:inkscape="http://www.inkscape.org/namespaces/inkscape"
   width="115.18387mm"
   height="44.64967mm"
   viewBox="0 0 408.13182 158.20749"
   id="svg2"
   version="1.1"
   inkscape:version="0.91 r13725"
   sodipodi:docname="watashi.svg">
  <defs
     id="defs4" />
  <sodipodi:namedview
     id="base"
     pagecolor="#ffffff"
     bordercolor="#666666"
     borderopacity="1.0"
     inkscape:pageopacity="0.0"
     inkscape:pageshadow="2"
     inkscape:zoom="0.49497475"
     inkscape:cx="149.48955"
     inkscape:cy="173.44963"
     inkscape:document-units="px"
     inkscape:current-layer="layer1"
     showgrid="false"
     fit-margin-top="0"
     fit-margin-left="0"
     fit-margin-right="0"
     fit-margin-bottom="0"
     inkscape:window-width="1280"
     inkscape:window-height="751"
     inkscape:window-x="0"
     inkscape:window-y="1"
     inkscape:window-maximized="1" />
  <metadata
     id="metadata7">
    <rdf:RDF>
      <cc:Work
         rdf:about="">
        <dc:format>image/svg+xml</dc:format>
        <dc:type
           rdf:resource="http://purl.org/dc/dcmitype/StillImage" />
        <dc:title></dc:title>
      </cc:Work>
    </rdf:RDF>
  </metadata>
  <g
     inkscape:label="Layer 1"
     inkscape:groupmode="layer"
     id="layer1"
     transform="translate(-186.37744,-374.45472)">
    <g
       style="font-style:normal;font-variant:normal;font-weight:normal;font-stretch:normal;font-size:20px;line-height:125%;font-family:'Noto Serif CJK JP';-inkscape-font-specification:'Noto Serif CJK JP';text-align:start;letter-spacing:0px;word-spacing:0px;writing-mode:lr-tb;text-anchor:start;fill:#333333;fill-opacity:1;stroke:none;stroke-width:1px;stroke-linecap:butt;stroke-linejoin:miter;stroke-opacity:1"
       id="text4136">
      <path
         d="m 340.92279,422.00472 26.85,0 c 2.1,0 3.6,-0.75 4.05,-2.4 -4.95,-4.5 -12.75,-10.95 -12.75,-10.95 l -7.05,9 -11.1,0 0,-27.45 c 7.35,-1.65 13.95,-3.45 19.5,-5.25 3.45,1.35 6.3,1.35 7.65,-0.15 l -12.15,-10.35 c -11.85,6.75 -35.4,15.75 -54.45,20.25 l 0.9,2.55 c 9.45,-1.05 19.5,-2.85 28.95,-4.8 l 0,25.2 -30.45,0 1.05,4.35 26.7,0 c -5.55,21.9 -15.6,44.1 -29.1,60.45 l 1.95,2.1 c 12.6,-11.25 22.5,-24.9 29.85,-40.2 l 0,66.9 1.5,0 c 4.8,0 8.1,-2.55 8.1,-3.45 l 0,-71.7 c 7.05,6.6 14.85,16.35 17.4,23.85 10.2,6.9 16.8,-14.1 -17.4,-27 l 0,-10.95 z m 62.55,24.3 c 6.15,10.65 13.95,24.75 19.5,38.25 -18,1.95 -35.25,3.75 -48.9,4.95 12.75,-34.35 23.7,-78.9 28.95,-103.5 3.6,-0.3 5.4,-2.55 5.7,-4.35 l -16.95,-3.9 c -3.3,25.5 -12.6,76.2 -21.15,112.05 -8.4,0.75 -15.15,1.35 -19.8,1.65 l 5.25,13.8 c 1.65,-0.3 3.15,-1.2 4.05,-3.15 27.75,-5.85 48.45,-10.65 64.05,-14.55 2.7,7.05 4.8,13.8 5.85,19.65 12.3,10.65 18.45,-20.4 -24.15,-61.8 l -2.4,0.9 z"
         style="font-size:150px;fill:#333333;fill-opacity:1"
         id="path4201" />
    </g>
    <path
       style="opacity:1;fill:#333333;fill-opacity:1;stroke:#ffffff;stroke-width:1;stroke-miterlimit:4;stroke-dasharray:none;stroke-opacity:1"
       d="m 462.30297,460.38403 a 9.5001478,9.5001526 0 0 1 -9.50014,9.50016 9.5001478,9.5001526 0 0 1 -9.50015,-9.50016 9.5001478,9.5001526 0 0 1 9.50015,-9.50015 9.5001478,9.5001526 0 0 1 9.50014,9.50015 z"
       id="path4144" />
    <path
       style="opacity:1;fill:#333333;fill-opacity:1;stroke:#ffffff;stroke-width:1;stroke-miterlimit:4;stroke-dasharray:none;stroke-opacity:1"
       d="m 290.00021,455.33316 a 9.5001478,9.5001526 0 0 1 -9.50015,9.50015 9.5001478,9.5001526 0 0 1 -9.50015,-9.50015 9.5001478,9.5001526 0 0 1 9.50015,-9.50015 9.5001478,9.5001526 0 0 1 9.50015,9.50015 z"
       id="path4144-1" />
    <g
       style="font-style:normal;font-variant:normal;font-weight:normal;font-stretch:normal;font-size:20px;line-height:125%;font-family:FontAwesome;-inkscape-font-specification:'FontAwesome, Normal';text-align:start;letter-spacing:0px;word-spacing:0px;writing-mode:lr-tb;text-anchor:start;fill:#333333;fill-opacity:1;stroke:none;stroke-width:1px;stroke-linecap:butt;stroke-linejoin:miter;stroke-opacity:1"
       id="text4161">
      <path
         d="m 212.36494,449.63721 0,-3.0625 -25.9875,0 0,3.0625 9.1,0.9625 c 0.2625,8.4 0.2625,16.975 0.2625,25.4625 l 0,4.8125 c 0,8.575 0,17.0625 -0.2625,25.375 l -9.1,0.9625 0,3.15 25.9875,0 0,-3.15 -9.1,-0.9625 c -0.2625,-8.4 -0.2625,-16.975 -0.2625,-25.375 l 0,-4.8125 c 0,-8.6625 0,-17.15 0.2625,-25.4625 l 9.1,-0.9625 z"
         style="font-style:normal;font-variant:normal;font-weight:normal;font-stretch:normal;font-size:87.5px;font-family:'Noto Serif CJK JP';-inkscape-font-specification:'Noto Serif CJK JP';fill:#333333;fill-opacity:1"
         id="path4205" />
    </g>
    <g
       style="font-style:normal;font-variant:normal;font-weight:normal;font-stretch:normal;font-size:20px;line-height:125%;font-family:FontAwesome;-inkscape-font-specification:'FontAwesome, Normal';text-align:start;letter-spacing:0px;word-spacing:0px;writing-mode:lr-tb;text-anchor:start;fill:#333333;fill-opacity:1;stroke:none;stroke-width:1px;stroke-linecap:butt;stroke-linejoin:miter;stroke-opacity:1"
       id="text4167">
      <path
         d="m 548.72899,463.79972 -18.2875,0 0,2.7125 8.575,1.1375 -12.425,34.7375 -12.8625,-34.825 8.4,-0.9625 0,-2.8 -21.7,0 0,2.7125 5.6,0.7875 17.325,43.75 -0.7875,2.0125 c -2.1875,6.0375 -5.25,11.375 -9.7125,14.525 l -0.7,-0.7 c -2.275,-2.1875 -4.1125,-3.2375 -6.5625,-3.2375 -2.5375,0 -4.9875,1.1375 -5.5125,3.5 0.0875,3.325 3.85,5.5125 8.1375,5.5125 7.0875,0 13.0375,-6.475 19.075,-22.4875 l 16.1,-42.6125 5.3375,-1.05 0,-2.7125 z"
         style="font-style:normal;font-variant:normal;font-weight:normal;font-stretch:normal;font-size:87.5px;font-family:'Noto Serif CJK JP';-inkscape-font-specification:'Noto Serif CJK JP';fill:#333333;fill-opacity:1"
         id="path4195" />
      <path
         d="m 573.07176,509.99972 c 10.7625,0 21.4375,-7.7 21.4375,-23.5375 0,-15.925 -10.85,-23.8875 -21.4375,-23.8875 -10.85,0 -21.525,7.9625 -21.525,23.8875 0,15.8375 10.675,23.5375 21.525,23.5375 z m 0,-3.5 c -8.8375,0 -14.0875,-6.9125 -14.0875,-20.0375 0,-13.0375 5.25,-20.3875 14.0875,-20.3875 8.75,0 14.0875,7.35 14.0875,20.3875 0,13.125 -5.3375,20.0375 -14.0875,20.0375 z"
         style="font-style:normal;font-variant:normal;font-weight:normal;font-stretch:normal;font-size:87.5px;font-family:'Noto Serif CJK JP';-inkscape-font-specification:'Noto Serif CJK JP';fill:#333333;fill-opacity:1"
         id="path4197" />
    </g>
  </g>
</svg>
