<?xml version="1.0" encoding="UTF-8" standalone="no"?>
<!-- Created with Inkscape (http://www.inkscape.org/) -->

<svg
   xmlns:dc="http://purl.org/dc/elements/1.1/"
   xmlns:cc="http://creativecommons.org/ns#"
   xmlns:rdf="http://www.w3.org/1999/02/22-rdf-syntax-ns#"
   xmlns:svg="http://www.w3.org/2000/svg"
   xmlns="http://www.w3.org/2000/svg"
   xmlns:sodipodi="http://sodipodi.sourceforge.net/DTD/sodipodi-0.dtd"
   xmlns:inkscape="http://www.inkscape.org/namespaces/inkscape"
   width="115.18387mm"
   height="44.64967mm"
   viewBox="0 0 408.13182 158.20749"
   id="svg2"
   version="1.1"
   inkscape:version="0.91 r13725"
   sodipodi:docname="watashi.svg">
  <defs
     id="defs4" />
  <sodipodi:namedview
     id="base"
     pagecolor="#ffffff"
     bordercolor="#666666"
     borderopacity="1.0"
     inkscape:pageopacity="0.0"
     inkscape:pageshadow="2"
     inkscape:zoom="1.4"
     inkscape:cx="166.29199"
     inkscape:cy="23.959132"
     inkscape:document-units="px"
     inkscape:current-layer="layer1"
     showgrid="false"
     fit-margin-top="0"
     fit-margin-left="0"
     fit-margin-right="0"
     fit-margin-bottom="0"
     inkscape:window-width="1029"
     inkscape:window-height="716"
     inkscape:window-x="213"
     inkscape:window-y="45"
     inkscape:window-maximized="0" />
  <metadata
     id="metadata7">
    <rdf:RDF>
      <cc:Work
         rdf:about="">
        <dc:format>image/svg+xml</dc:format>
        <dc:type
           rdf:resource="http://purl.org/dc/dcmitype/StillImage" />
        <dc:title />
      </cc:Work>
    </rdf:RDF>
  </metadata>
  <g
     inkscape:label="Layer 1"
     inkscape:groupmode="layer"
     id="layer1"
     transform="translate(-186.37744,-374.45472)">
    <path
       style="opacity:1;fill:#1a1a1a;fill-opacity:1;stroke:#ffffff;stroke-width:1;stroke-miterlimit:4;stroke-dasharray:none;stroke-opacity:1"
       d="m 475.46743,453.55847 a 9.5001478,9.5001526 0 0 1 -9.50014,9.50016 9.5001478,9.5001526 0 0 1 -9.50015,-9.50016 9.5001478,9.5001526 0 0 1 9.50015,-9.50015 9.5001478,9.5001526 0 0 1 9.50014,9.50015 z"
       id="path4144"
       inkscape:connector-curvature="0" />
    <path
       style="opacity:1;fill:#1a1a1a;fill-opacity:1;stroke:#ffffff;stroke-width:1;stroke-miterlimit:4;stroke-dasharray:none;stroke-opacity:1"
       d="m 317.14833,453.55847 a 9.5001478,9.5001526 0 0 1 -9.50015,9.50015 9.5001478,9.5001526 0 0 1 -9.50015,-9.50015 9.5001478,9.5001526 0 0 1 9.50015,-9.50015 9.5001478,9.5001526 0 0 1 9.50015,9.50015 z"
       id="path4144-1"
       inkscape:connector-curvature="0" />
    <text
       xml:space="preserve"
       style="font-style:normal;font-variant:normal;font-weight:normal;font-stretch:normal;font-size:20px;line-height:125%;font-family:FontAwesome;-inkscape-font-specification:'FontAwesome, Normal';text-align:start;letter-spacing:0px;word-spacing:0px;writing-mode:lr-tb;text-anchor:start;fill:#1a1a1a;fill-opacity:1;stroke:none;stroke-width:1px;stroke-linecap:butt;stroke-linejoin:miter;stroke-opacity:1;"
       x="218.48277"
       y="489.12082"
       id="text7230"
       sodipodi:linespacing="125%"><tspan
         sodipodi:role="line"
         id="tspan7232"
         x="218.48277"
         y="489.12082"
         style="font-style:normal;font-variant:normal;font-weight:normal;font-stretch:normal;font-size:62.5px;font-family:'Noto Serif CJK JP';-inkscape-font-specification:'Noto Serif CJK JP';fill:#1a1a1a;fill-opacity:1;">I</tspan></text>
    <g
       style="font-style:normal;font-variant:normal;font-weight:normal;font-stretch:normal;font-size:20px;line-height:125%;font-family:FontAwesome;-inkscape-font-specification:'FontAwesome, Normal';text-align:start;letter-spacing:0px;word-spacing:0px;writing-mode:lr-tb;text-anchor:start;opacity:1;fill:#444444;fill-opacity:1;stroke:none;stroke-width:1px;stroke-linecap:butt;stroke-linejoin:miter;stroke-opacity:1"
       id="text7234">
      <path
         d="m 372.45685,432.53658 20.1375,0 c 1.575,0 2.7,-0.5625 3.0375,-1.8 -3.7125,-3.375 -9.5625,-8.2125 -9.5625,-8.2125 l -5.2875,6.75 -8.325,0 0,-20.5875 c 5.5125,-1.2375 10.4625,-2.5875 14.625,-3.9375 2.5875,1.0125 4.725,1.0125 5.7375,-0.1125 l -9.1125,-7.7625 c -8.8875,5.0625 -26.55,11.8125 -40.8375,15.1875 l 0.675,1.9125 c 7.0875,-0.7875 14.625,-2.1375 21.7125,-3.6 l 0,18.9 -22.8375,0 0.7875,3.2625 20.025,0 c -4.1625,16.425 -11.7,33.075 -21.825,45.3375 l 1.4625,1.575 c 9.45,-8.4375 16.875,-18.675 22.3875,-30.15 l 0,50.175 1.125,0 c 3.6,0 6.075,-1.9125 6.075,-2.5875 l 0,-53.775 c 5.2875,4.95 11.1375,12.2625 13.05,17.8875 7.65,5.175 12.6,-10.575 -13.05,-20.25 l 0,-8.2125 z m 46.9125,18.225 c 4.6125,7.9875 10.4625,18.5625 14.625,28.6875 -13.5,1.4625 -26.4375,2.8125 -36.675,3.7125 9.5625,-25.7625 17.775,-59.175 21.7125,-77.625 2.7,-0.225 4.05,-1.9125 4.275,-3.2625 l -12.7125,-2.925 c -2.475,19.125 -9.45,57.15 -15.8625,84.0375 -6.3,0.5625 -11.3625,1.0125 -14.85,1.2375 l 3.9375,10.35 c 1.2375,-0.225 2.3625,-0.9 3.0375,-2.3625 20.8125,-4.3875 36.3375,-7.9875 48.0375,-10.9125 2.025,5.2875 3.6,10.35 4.3875,14.7375 9.225,7.9875 13.8375,-15.3 -18.1125,-46.35 l -1.8,0.675 z"
         style="font-style:normal;font-variant:normal;font-weight:normal;font-stretch:normal;font-size:112.5px;font-family:'Noto Serif CJK JP';-inkscape-font-specification:'Noto Serif CJK JP';fill:#444444;fill-opacity:1"
         id="path10887" />
    </g>
    <text
       xml:space="preserve"
       style="font-style:normal;font-variant:normal;font-weight:normal;font-stretch:normal;font-size:20px;line-height:125%;font-family:FontAwesome;-inkscape-font-specification:'FontAwesome, Normal';text-align:start;letter-spacing:0px;word-spacing:0px;writing-mode:lr-tb;text-anchor:start;fill:#1a1a1a;fill-opacity:1;stroke:none;stroke-width:1px;stroke-linecap:butt;stroke-linejoin:miter;stroke-opacity:1;"
       x="499.02481"
       y="489.12082"
       id="text7242"
       sodipodi:linespacing="125%"><tspan
         sodipodi:role="line"
         id="tspan7244"
         x="499.02481"
         y="489.12082"
         style="font-style:normal;font-variant:normal;font-weight:normal;font-stretch:normal;font-size:62.5px;font-family:'Noto Serif CJK JP';-inkscape-font-specification:'Noto Serif CJK JP';fill:#1a1a1a;fill-opacity:1;">Yo</tspan></text>
    <flowRoot
       xml:space="preserve"
       id="flowRoot10878"
       style="fill:black;stroke:none;stroke-opacity:1;stroke-width:1px;stroke-linejoin:miter;stroke-linecap:butt;fill-opacity:1;font-family:FontAwesome;font-style:normal;font-weight:normal;font-size:20px;line-height:125%;letter-spacing:0px;word-spacing:0px;-inkscape-font-specification:'FontAwesome, Normal';font-stretch:normal;font-variant:normal;text-anchor:start;text-align:start;writing-mode:lr"><flowRegion
         id="flowRegion10880"><rect
           id="rect10882"
           width="82.832512"
           height="22.223356"
           x="153.54318"
           y="95.578033" /></flowRegion><flowPara
         id="flowPara10884"></flowPara></flowRoot>  </g>
</svg>
